<?xml version="1.0" encoding="utf-8"?>
<!-- Generator: Adobe Illustrator 22.0.1, SVG Export Plug-In . SVG Version: 6.00 Build 0)  -->
<svg version="1.1" id="Слой_1" xmlns="http://www.w3.org/2000/svg" xmlns:xlink="http://www.w3.org/1999/xlink" x="0px" y="0px"
	 viewBox="0 0 64.9 92.7" style="enable-background:new 0 0 64.9 92.7;" xml:space="preserve">
<style type="text/css">
	.st0{fill:#FFFFFF;}
	.st1{fill:none;}
	.st2{fill:#20419A;}
</style>
<title>placeholder</title>
<path class="st0" d="M55.4,9.5C42.7-3.2,22.2-3.2,9.5,9.5c0,0,0,0,0,0c-11.3,11.4-12.8,32.7-3,45.6l26,37.6l26-37.5
	C68.2,42.2,66.8,20.9,55.4,9.5L55.4,9.5z M32.8,44c-6.5,0-11.9-5.3-11.9-11.8s5.3-11.9,11.8-11.9s11.9,5.3,11.9,11.8c0,0,0,0,0,0
	C44.6,38.7,39.3,44,32.8,44z"/>
<rect x="17" y="17.7" class="st1" width="31" height="44.9"/>
<ellipse id="_Контур_" class="st2" cx="32.5" cy="33.9" rx="22" ry="22.4"/>
<path class="st0" d="M43.7,53.1c-0.6-4-3.2-16.4-3.4-19.6c-0.6-6.2-2.2-8.6-2.2-8.6c1.1-6.5,0.3-9.3-2.5-8.9
	c-2.7,0.3-0.8,6.7-0.8,6.7c-0.9-0.3-1.8-0.4-2.7-0.4c0,0-2.5-8.6-4.3-6.5s1.8,7.2,1.8,7.2c-1.2,0.4-2.4,1-3.4,1.8
	c-0.2,0.3-0.4,0.6-0.4,1c-1.9,0.6-3.6,1.7-5,3.1c-0.4,0.4-0.5,1-0.3,1.5c0.3,0.8,0.3,0.9,0.3,0.9c-0.3,0.6-0.3,1.3,0,1.9
	c1.8,4.1,6.9,0.9,6.9,0.9c2.9,2.9,6.9,0.1,6.9,0.1c-2.5,3.4-5.6,2-5.6,2c0.5,4.5,0.5,9,0,13.5c-0.5,2.1-0.5,4.3,0,6.4
	c1.1,0.2,2.3,0.3,3.4,0.3C36.3,56.3,40.3,55.2,43.7,53.1z"/>
<path id="_Контур_2" class="st2" d="M29.5,28.5c0.4-0.7,1.1-1.1,1.9-1.1c1.3,0.1,1.2,0.9,2.7,0.8c-0.1,0.4-0.4,0.8-0.9,0.9
	c-0.4,0.1-0.8,0.1-1.2-0.1l-0.7-0.3c-0.1,0-0.2-0.1-0.3-0.1C30.4,28.5,30,28.5,29.5,28.5z"/>
<path id="_Контур_3" class="st2" d="M36.1,24.9c0.1-0.9,0-1.8-0.3-2.7c-0.4-1.1-0.8-4.2,0.3-4S38.5,23.3,36.1,24.9z"/>
<path id="_Контур_4" class="st2" d="M21.4,30.7c0,0,1.3-1.7,2.4-0.4C23.8,30.2,24.4,31.2,21.4,30.7z"/>
</svg>
