<?xml version="1.0" encoding="utf-8"?>
<!-- Generator: Adobe Illustrator 22.0.1, SVG Export Plug-In . SVG Version: 6.00 Build 0)  -->
<svg version="1.1" id="Layer_1" xmlns="http://www.w3.org/2000/svg" xmlns:xlink="http://www.w3.org/1999/xlink" x="0px" y="0px"
	 viewBox="0 0 512 335.4" style="enable-background:new 0 0 512 335.4;" xml:space="preserve">
<style type="text/css">
	.st0{fill:#41479B;}
	.st1{fill:#F5F5F5;}
	.st2{fill:#FF4B55;}
</style>
<path class="st0" d="M503.2,335.4H8.8c-4.9,0-8.8-4-8.8-8.8V8.8C0,4,4,0,8.8,0h494.3c4.9,0,8.8,4,8.8,8.8v317.8
	C512,331.5,508,335.4,503.2,335.4z"/>
<path class="st1" d="M247.2,0h-15.3l-81.8,53.6V0h-44.1v53.6L24.2,0H8.8C4,0,0,4,0,8.8v7l70.2,46H0v44.1h70.2L0,151.9v7
	c0,4.9,4,8.8,8.8,8.8h15.3l81.8-53.6v53.6h44.1v-53.6l81.8,53.6h15.3c4.9,0,8.8-4,8.8-8.8v-7l-70.2-46H256V61.8h-70.2l70.2-46v-7
	C256,4,252,0,247.2,0z"/>
<g>
	<polygon class="st2" points="256,70.6 141.2,70.6 141.2,0 114.8,0 114.8,70.6 0,70.6 0,97.1 114.8,97.1 114.8,167.7 141.2,167.7 
		141.2,97.1 256,97.1 	"/>
	<path class="st2" d="M97.1,61.8L4.2,1.5C1.7,3.1,0,5.7,0,8.8v0.5l80.9,52.5L97.1,61.8L97.1,61.8z"/>
	<path class="st2" d="M166.3,61.8l88.4-57.4c-1.5-2.6-4.2-4.4-7.5-4.4h-1.9l-95.2,61.8H166.3z"/>
	<path class="st2" d="M89.5,105.9L1.3,163.2c1.5,2.7,4.3,4.5,7.6,4.5h1.7l95.2-61.8L89.5,105.9L89.5,105.9z"/>
	<path class="st2" d="M255.9,159.6l-82.7-53.7H157l93.9,60.9C253.7,165.6,255.6,162.8,255.9,159.6z"/>
</g>
<g>
	<path class="st1" d="M130.7,215.9l6.7,22l21.4-8.5c1.8-0.7,3.5,1.4,2.4,3l-13,18.9l20,11.4c1.7,1,1.1,3.6-0.8,3.7l-22.9,1.6
		l3.5,22.7c0.3,1.9-2.1,3.1-3.4,1.6l-15.5-16.9l-15.5,16.9c-1.3,1.4-3.7,0.3-3.4-1.6l3.5-22.7l-22.9-1.6c-2-0.1-2.5-2.7-0.8-3.7
		l20-11.4l-13-18.9c-1.1-1.6,0.5-3.7,2.4-3l21.4,8.5l6.7-22C127.4,214,130.1,214,130.7,215.9z"/>
	<path class="st1" d="M393.3,59.5l3.3,10.7L407,66c0.9-0.4,1.7,0.7,1.2,1.4l-6.4,9.2l9.8,5.6c0.8,0.5,0.5,1.7-0.4,1.8l-11.2,0.8
		l1.7,11.1c0.1,0.9-1,1.5-1.7,0.8l-7.6-8.3l-7.6,8.3c-0.6,0.7-1.8,0.1-1.7-0.8l1.7-11.1l-11.2-0.8c-1-0.1-1.2-1.3-0.4-1.8l9.8-5.6
		l-6.4-9.2c-0.5-0.8,0.3-1.8,1.2-1.4l10.4,4.2l3.3-10.7C391.7,58.5,393,58.5,393.3,59.5z"/>
	<path class="st1" d="M320.7,141.9l3.3,10.7l10.4-4.2c0.9-0.4,1.7,0.7,1.2,1.4l-6.4,9.2l9.8,5.6c0.8,0.5,0.5,1.7-0.4,1.8l-11.2,0.8
		l1.7,11.1c0.1,0.9-1,1.5-1.7,0.8l-7.6-8.3l-7.6,8.3c-0.6,0.7-1.8,0.1-1.7-0.8l1.7-11.1l-11.2-0.8c-1-0.1-1.2-1.3-0.4-1.8l9.8-5.6
		L304,150c-0.5-0.8,0.3-1.8,1.2-1.4l10.4,4.2l3.3-10.7C319.1,141,320.4,141,320.7,141.9z"/>
	<path class="st1" d="M461.9,106.6l3.3,10.7l10.4-4.2c0.9-0.4,1.7,0.7,1.2,1.4l-6.4,9.2l9.8,5.6c0.8,0.5,0.5,1.7-0.4,1.8l-11.2,0.8
		l1.7,11.1c0.1,0.9-1,1.5-1.7,0.8l-7.6-8.3l-7.6,8.3c-0.6,0.7-1.8,0.1-1.7-0.8l1.7-11.1l-11.2-0.8c-1-0.1-1.2-1.3-0.4-1.8l9.8-5.6
		l-6.4-9.2c-0.5-0.8,0.3-1.8,1.2-1.4l10.4,4.2l3.3-10.7C460.4,105.7,461.7,105.7,461.9,106.6z"/>
	<path class="st1" d="M393.3,247.9l3.3,10.7l10.4-4.2c0.9-0.4,1.7,0.7,1.2,1.4l-6.4,9.2l9.8,5.6c0.8,0.5,0.5,1.7-0.4,1.8l-11.2,0.8
		l1.7,11.1c0.1,0.9-1,1.5-1.7,0.8l-7.6-8.3l-7.6,8.3c-0.6,0.7-1.8,0.1-1.7-0.8l1.7-11.1l-11.2-0.8c-1-0.1-1.2-1.3-0.4-1.8l9.8-5.6
		l-6.4-9.2c-0.5-0.8,0.3-1.8,1.2-1.4l10.4,4.2l3.3-10.7C391.7,246.9,393,246.9,393.3,247.9z"/>
	<path class="st1" d="M418.5,161.2l-2.6,7.8l-8.3,0.1c-1.1,0-1.5,1.4-0.7,2l6.6,4.9l-2.5,7.9c-0.3,1,0.8,1.9,1.7,1.2l6.7-4.8
		l6.7,4.8c0.9,0.6,2-0.2,1.7-1.2l-2.5-7.9l6.6-4.9c0.9-0.6,0.4-2-0.7-2l-8.3-0.1l-2.6-7.8C420.2,160.2,418.8,160.2,418.5,161.2z"/>
</g>
</svg>
