<?xml version="1.0" encoding="utf-8"?>
<!-- Generator: Adobe Illustrator 22.0.1, SVG Export Plug-In . SVG Version: 6.00 Build 0)  -->
<svg version="1.1" id="Layer_1" xmlns="http://www.w3.org/2000/svg" xmlns:xlink="http://www.w3.org/1999/xlink" x="0px" y="0px"
	 viewBox="0 0 512 335.4" style="enable-background:new 0 0 512 335.4;" xml:space="preserve">
<style type="text/css">
	.st0{fill:#73AF00;}
	.st1{fill:#FF4B55;}
	.st2{fill:#F5F5F5;}
</style>
<path class="st0" d="M503.2,335.4H8.8c-4.9,0-8.8-4-8.8-8.8v-79.4h512v79.4C512,331.5,508,335.4,503.2,335.4z"/>
<path class="st1" d="M503.2,0H8.8C4,0,0,4,0,8.8v238.3h512V8.8C512,4,508,0,503.2,0z"/>
<path class="st2" d="M70.6,335.4H8.8c-4.9,0-8.8-4-8.8-8.8V8.8C0,4,4,0,8.8,0h61.8V335.4z"/>
<path class="st1" d="M8.8,320.8H12V312H8.8V320.8z M33.8,320.8h3.1V312h-3.1V320.8z M58.7,320.8h3.1V312h-3.1V320.8z M21.3,297.3
	h3.1V290h-3.1V297.3z M46.2,297.3h3.1V290h-3.1V297.3z M8.8,278.3H12v-8.8H8.8V278.3z M33.8,278.3h3.1v-8.8h-3.1V278.3z M58.7,278.3
	h3.1v-8.8h-3.1V278.3z M15.1,290h3.1v-7.4h3.1v-7.3h3.1v7.3h3.1v7.4h3.1v7.3h-3.1v7.4h-3.1v7.4h-3.1v-7.4h-3.1v-7.4h-3.1V290z
	 M40,290h3.1v-7.4h3.1v-7.3h3.1v7.3h3.1v7.4h3.1v7.3h-3.1v7.4h-3.1v7.4h-3.1v-7.4h-3.1v-7.4H40C40,297.3,40,290,40,290z M46.2,260.7
	v7.3h-3.1v7.4H40v7.3h-3.1v7.4h-3.1v-7.4h-3.1v-7.3h-3.1V268h-3.1v-7.3h-3.1v7.3h-3.1v7.4h-3.1v7.3H12v7.4H8.8v7.3H12v7.4h3.1v7.4
	h3.1v7.3h3.1v7.3h3.1v-7.3h3.1V312h3.1v-7.4h3.1v-7.4h3.1v7.4H40v7.4h3.1v7.3h3.1v7.3h3.1v-7.3h3.1V312h3.1v-7.4h3.1v-7.4h3.1V290
	h-3.1v-7.4h-3.1v-7.3h-3.1V268h-3.1v-7.3H46.2L46.2,260.7z M54,253.5h1.6v-2.9h1.6v2.9h1.6v2.9h-1.6v3h-1.6v-3H54V253.5z M54,243.2
	v4.3h-1.5v4.4h-1.6v5.8h1.6v4.4H54v4.4h4.7v-4.4h1.6v-4.4h1.5V252h-1.5v-4.4h-1.6v-4.3H54z M12,253.4h1.6v-2.9h1.6v2.9h1.5v3h-1.5
	v2.9h-1.6v-2.9H12V253.4z M12,243.2v4.4h-1.6v4.4H8.8v5.9h1.6v4.4H12v4.4h4.7v-4.4h1.6v-4.4h1.5v-5.9h-1.5v-4.4h-1.6v-4.4H12z
	 M29.1,253.4h1.5v-2.9h1.6v2.9h1.5v3h-1.5v2.9h-1.6v-2.9h-1.5V253.4z M36.9,253.4h1.6v-2.9H40v2.9h1.5v3H40v2.9h-1.6v-2.9h-1.6
	V253.4z M36.9,243.2v4.4h-3.1v-4.4h-4.7v4.4h-1.6v4.4H26v5.9h1.6v4.4h1.6v4.4h4.7v-4.4h3.1v4.4h4.7v-4.4h1.6v-4.4h1.5v-5.9h-1.5
	v-4.4h-1.6v-4.4H36.9z M8.8,240.2H12v-8.7H8.8V240.2z M33.8,240.2h3.1v-8.7h-3.1V240.2z M58.7,240.2h3.1v-8.7h-3.1V240.2z
	 M8.8,203.6H12v-5.8H8.8V203.6z M58.7,203.6h3.1v-5.8h-3.1V203.6z M33.8,183.1h3.1v-7.3h-3.1V183.1z M8.8,163.4v4.4v0.1v4.4H12v-4.4
	v-0.1v-4.4H8.8z M26,163.4v4.4v0.1v4.4h3.1v-4.4v-0.1v-4.4H26z M41.5,163.4v4.4v0.1v4.4h3.1v-4.4v-0.1v-4.4H41.5z M58.7,163.4v4.4
	v0.1v4.4h3.1v-4.4v-0.1v-4.4H58.7z M38.4,158.2v2.9h-1.6v2.2h-3.1v-2.2h-1.5v-2.9h-3.1v4.4h1.5v2.2h1.6v2.9v0.1v2.9h-1.6v2.2h-1.5
	v4.4h3.1v-2.9h1.5v-2.2h3.1v2.2h1.6v2.9h3.1v-4.4H40v-2.2h-1.6v-2.9v-0.1v-2.9H40v-2.2h1.5v-4.4L38.4,158.2L38.4,158.2z M33.8,159.7
	h3.1v-7.3h-3.1V159.7z M8.8,137.7H12v-5.8H8.8V137.7z M58.7,137.7h3.1v-5.8h-3.1V137.7z M8.8,104.1H12v-8.8H8.8V104.1z M33.8,104.1
	h3.1v-8.8h-3.1V104.1z M58.7,104.1h3.1v-8.8h-3.1V104.1z M21.3,167.9v-0.2l0,0v-2.9h3.1v-5.1h3.1v-5.9h4.7v-6.9h1.5v-3.4h1.6h1.6
	v3.3h1.6v7h4.7v2.9v3h3.1v5.1h3.1v2.9v2.9h-3.1v5.2h-3.1v2.9v2.9h-4.7v6.9h-1.6v3.3h-1.6h-1.6v-3.3h-1.5v-6.9h-4.7v-5.8h-3.1v-5.2
	h-3.1V167.9z M46.2,86.4v7.4h-3.1v7.3H40v7.4h-3.1v5.8v1.5h-3.1v-7.3h-3.1v-7.4h-3.1v-7.3h-3.1v-7.4h-3.1v7.4h-3.1v7.3h-3.1v7.4H12
	v5.8v1.5H8.8v7.4H12v7.4h3.1v7.3h3.1v7.3h3.1v-7.3h3.1v-7.3h3.1v-7.4h-3.1v-8.8h3.1v1.5v4.4h3.1v11.7h1.6v7.2l-4.7,0.1v5.8h-3.1v4.4
	h-3.1v7.4h-3.1v-7.4h-3.1V145H12v-4.4H8.8v13.2H12v5.9h3.1v5.1h3.1v2.9v0.1v2.9h-3.1v5.2H12v5.8H8.8v13.2H12v-4.4h3.1V186h3.1v-7.3
	h3.1v7.3h3.1v4.4h3.1v5.9l4.7,0.1v7.2h-1.6v11.7h-3.1v4.4v1.5h-3.1v-8.9h3.1v-7.3h-3.1v-7.3h-3.1v-7.4h-3.1v7.4h-3.1v7.3H12v7.3H8.8
	v7.4H12v1.5v5.8h3.1v7.4h3.1v7.4h3.1v7.3l0,0l0,0h3.1v-7.3h3.1v-7.4h3.1V227h3.1v-7.3h3.1v1.5v5.8H40v7.4h3.1v7.4h3.1v7.3h3.1v-7.3
	h3.1v-7.4h3.1V227h3.1v-7.3h3.1v-7.4h-3.1v-7.3h-3.1v-7.3h-3.1v-7.4h-3.1v7.4h-3.1v7.3h-3.1v7.3h3.1v7.4v1.5h-3.1v-1.5v-4.4H40
	v-11.7h-0.4h-1.1v-7.3h1.1h0.8h1.1h1.6v-5.9h3.1V186h3.1v-7.3h3.1v7.3h3.1v4.4h3.1v4.4h3.1v-13.2h-3.1v-5.8h-3.1v-5.2h-3.1v-2.9
	v-0.1v-2.9h3.1v-5.1h3.1v-5.9h3.1v-13.2h-3.1v4.4h-3.1v4.4h-3.1v7.4h-3.1v-7.4h-3.1V145h-3.1v-5.8h-1.6h-1.1h-0.8h-1.1v-7.3h1.1H40
	v-11.7h3.1v-4.4v-1.5h3.1v1.5v7.4h-3.1v7.4h3.1v7.3h3.1v7.3h3.1v-7.3h3.1v-7.3h3.1v-7.4h3.1v-7.4h-3.1v-7.3h-3.1v-7.4h-3.1v-7.3
	h-3.1v-7.4L46.2,86.4L46.2,86.4z M12,79.1h1.5v-2.9h1.6v2.9h1.5v2.9h-1.5v3h-1.6v-3H12V79.1z M12,73.2h-1.6v4.4H8.8v5.8h1.6V88H12
	v4.4h4.7V88h1.6v-4.4h1.5v-5.8h-1.5v-4.4h-1.6v-4.3H12C12,68.9,12,73.2,12,73.2z M29.1,79.1h1.5v-2.9h1.6v2.9h1.5v2.9h-1.5v3h-1.6
	v-3h-1.5V79.1z M36.9,79.1h1.6v-2.9H40v2.9h1.5v2.9H40v3h-1.6v-3h-1.6V79.1z M29.1,73.2h-1.6v4.4H26v5.8h1.6V88h1.6v4.4h4.7V88h3.1
	v4.4h4.7V88h1.6v-4.4h1.5v-5.8h-1.5v-4.4h-1.6v-4.3h-4.7v4.3h-3.1v-4.3h-4.7V73.2z M54,79.1h1.6v-2.9h1.6v2.9h1.6v3h-1.6V85h-1.6
	v-2.9H54V79.1z M54,68.9v4.4h-1.5v4.4h-1.6v5.8h1.6v4.4H54v4.4h4.7v-4.4h1.6v-4.4h1.5v-5.8h-1.5v-4.4h-1.6v-4.4H54z M8.8,66H12v-8.8
	H8.8V66z M33.8,66h3.1v-8.8h-3.1V66z M58.7,66h3.1v-8.8h-3.1V66z M21.3,45.5h3.1v-7.4h-3.1V45.5z M46.2,45.5h3.1v-7.4h-3.1V45.5z
	 M8.8,23.5H12v-8.8H8.8V23.5z M33.8,23.5h3.1v-8.8h-3.1V23.5z M58.7,23.5h3.1v-8.8h-3.1V23.5z M15.1,38.1h3.1v-7.3h3.1v-7.4h3.1v7.4
	h3.1v7.3h3.1v7.4h-3.1v7.3h-3.1v7.4h-3.1v-7.4h-3.1v-7.3h-3.1V38.1z M40,38.1h3.1v-7.3h3.1v-7.4h3.1v7.4h3.1v7.3h3.1v7.4h-3.1v7.3
	h-3.1v7.4h-3.1v-7.4h-3.1v-7.3H40C40,45.5,40,38.1,40,38.1z M46.2,8.8v7.4h-3.1v7.3H40v7.4h-3.1v7.3h-3.1v-7.3h-3.1v-7.4h-3.1v-7.3
	h-3.1V8.8h-3.1v7.4h-3.1v7.3h-3.1v7.4H12v7.3H8.8v7.4H12v7.3h3.1v7.4h3.1v7.4h3.1v7.3h3.1v-7.3h3.1v-7.4h3.1v-7.4h3.1v-7.3h3.1v7.3
	H40v7.4h3.1v7.4h3.1v7.3h3.1v-7.3h3.1v-7.4h3.1v-7.4h3.1v-7.3h3.1v-7.4h-3.1v-7.3h-3.1v-7.4h-3.1v-7.3h-3.1V8.8
	C49.3,8.8,46.2,8.8,46.2,8.8z"/>
</svg>
