<?xml version="1.0" encoding="utf-8"?>
<!-- Generator: Adobe Illustrator 22.0.1, SVG Export Plug-In . SVG Version: 6.00 Build 0)  -->
<svg version="1.1" id="Layer_1" xmlns="http://www.w3.org/2000/svg" xmlns:xlink="http://www.w3.org/1999/xlink" x="0px" y="0px"
	 viewBox="0 0 512 335.4" style="enable-background:new 0 0 512 335.4;" xml:space="preserve">
<style type="text/css">
	.st0{fill:#41479B;}
	.st1{fill:#FFE15A;}
	.st2{fill:#F5F5F5;}
</style>
<path class="st0" d="M503.2,335.4H8.8c-4.9,0-8.8-4-8.8-8.8V8.8C0,4,4,0,8.8,0h494.3c4.9,0,8.8,4,8.8,8.8v317.8
	C512,331.5,508,335.4,503.2,335.4z"/>
<polygon class="st1" points="441.4,0 441.4,335.4 105.9,0 "/>
<g>
	<path class="st2" d="M207.4,124.9l5.1,15.3l16.1,0.1c1.2,0,1.8,1.6,0.8,2.3l-12.9,9.6l4.9,15.3c0.4,1.2-1,2.2-2,1.4l-13.1-9.4
		l-13.1,9.4c-1,0.7-2.4-0.3-2-1.4l4.9-15.3l-12.9-9.6c-1-0.7-0.5-2.3,0.8-2.3l16.1-0.1l5.1-15.3C205.3,123.7,207,123.7,207.4,124.9z
		"/>
	<path class="st2" d="M170.6,88.1l5.1,15.3l16.1,0.1c1.2,0,1.8,1.6,0.8,2.3l-12.9,9.6l4.9,15.3c0.4,1.2-1,2.2-2,1.4l-13.1-9.4
		l-13.1,9.4c-1,0.7-2.4-0.3-2-1.4l4.9-15.3l-12.9-9.6c-1-0.7-0.5-2.3,0.8-2.3l16.1-0.1l5.1-15.3C168.5,86.9,170.2,86.9,170.6,88.1z"
		/>
	<path class="st2" d="M133.8,51.3l5.1,15.3l16.1,0.1c1.2,0,1.8,1.6,0.8,2.3l-12.9,9.6l4.9,15.3c0.4,1.2-1,2.2-2,1.4L132.6,86
		l-13.1,9.4c-1,0.7-2.4-0.3-2-1.4l4.9-15.3l-12.9-9.6c-1-0.7-0.5-2.3,0.8-2.3l16.1-0.1l5.1-15.3C131.7,50.2,133.4,50.2,133.8,51.3z"
		/>
	<path class="st2" d="M97,14.6l5.1,15.3l16.1,0.1c1.2,0,1.8,1.6,0.8,2.3L106,41.8l4.9,15.3c0.4,1.2-1,2.2-2,1.4l-13.1-9.4l-13.1,9.4
		c-1,0.7-2.4-0.3-2-1.4l4.9-15.3l-12.9-9.6c-1-0.7-0.5-2.3,0.8-2.3l16.1-0.1l5.1-15.3C94.9,13.4,96.6,13.4,97,14.6z"/>
	<path class="st2" d="M354.5,272l5.1,15.3l16.1,0.1c1.2,0,1.8,1.6,0.8,2.3l-12.9,9.6l4.9,15.3c0.4,1.2-1,2.2-2,1.4l-13.1-9.4
		l-13.1,9.4c-1,0.7-2.4-0.3-2-1.4l4.9-15.3l-12.9-9.6c-1-0.7-0.5-2.3,0.8-2.3l16.1-0.1L352,272C352.4,270.8,354.1,270.8,354.5,272z"
		/>
	<path class="st2" d="M317.7,235.2l5.1,15.3l16.1,0.1c1.2,0,1.8,1.6,0.8,2.3l-12.9,9.6l4.9,15.3c0.4,1.2-1,2.2-2,1.4l-13.1-9.4
		l-13.1,9.4c-1,0.7-2.4-0.3-2-1.4l4.9-15.3l-12.9-9.6c-1-0.7-0.5-2.3,0.8-2.3l16.1-0.1l5.1-15.3
		C315.6,234.1,317.3,234.1,317.7,235.2z"/>
	<path class="st2" d="M280.9,198.5l5.1,15.3l16.1,0.1c1.2,0,1.8,1.6,0.8,2.3l-12.9,9.6l4.9,15.3c0.4,1.2-1,2.2-2,1.4l-13.1-9.4
		l-13.1,9.4c-1,0.7-2.4-0.3-2-1.4l4.9-15.3l-12.9-9.6c-1-0.7-0.5-2.3,0.8-2.3l16.1-0.1l5.1-15.3
		C278.9,197.3,280.5,197.3,280.9,198.5z"/>
	<path class="st2" d="M244.1,161.7l5.1,15.3l16.1,0.1c1.2,0,1.8,1.6,0.8,2.3l-12.9,9.6l4.9,15.3c0.4,1.2-1,2.2-2,1.4l-13.1-9.4
		l-13.1,9.4c-1,0.7-2.4-0.3-2-1.4l4.9-15.3l-12.9-9.6c-1-0.7-0.5-2.3,0.8-2.3l16.1-0.1l5.1-15.3
		C242.1,160.5,243.7,160.5,244.1,161.7z"/>
	<path class="st2" d="M41.9,0l6.8,5l-4.9,15.3c-0.4,1.2,1,2.2,2,1.4L59,12.5l13.1,9.4c1,0.7,2.4-0.3,2-1.4L69.2,5l6.8-5H41.9z"/>
	<path class="st2" d="M412.4,324.2l-16.1-0.1l-5.1-15.3c-0.4-1.2-2.1-1.2-2.5,0l-5.1,15.3l-16.1,0.1c-1.2,0-1.8,1.6-0.8,2.3
		l12.1,8.9h22.2l12.1-8.9C414.2,325.8,413.7,324.2,412.4,324.2z"/>
</g>
</svg>
