<?xml version="1.0" encoding="utf-8"?>
<!-- Generator: Adobe Illustrator 22.0.1, SVG Export Plug-In . SVG Version: 6.00 Build 0)  -->
<svg version="1.1" id="Layer_1" xmlns="http://www.w3.org/2000/svg" xmlns:xlink="http://www.w3.org/1999/xlink" x="0px" y="0px"
	 viewBox="0 0 512 335.4" style="enable-background:new 0 0 512 335.4;" xml:space="preserve">
<style type="text/css">
	.st0{fill:#41479B;}
	.st1{fill:#FF4B55;}
	.st2{fill:#F5F5F5;}
	.st3{fill:#4173CD;}
	.st4{fill:#FFE15A;}
</style>
<path class="st0" d="M0,223.6h512v103c0,4.9-4,8.8-8.8,8.8H8.8c-4.9,0-8.8-4-8.8-8.8V223.6z"/>
<path class="st1" d="M8.8,0h494.3c4.9,0,8.8,4,8.8,8.8v103H0V8.8C0,4,4,0,8.8,0z"/>
<rect y="111.8" class="st2" width="512" height="111.8"/>
<g>
	<rect x="194.2" y="114.8" class="st1" width="24.7" height="28.3"/>
	<rect x="243.6" y="114.8" class="st1" width="24.7" height="28.3"/>
	<rect x="218.9" y="143" class="st1" width="24.7" height="28.3"/>
	<rect x="293.1" y="114.8" class="st1" width="24.7" height="28.3"/>
	<rect x="268.4" y="143" class="st1" width="24.7" height="28.3"/>
</g>
<g>
	<rect x="218.9" y="114.8" class="st2" width="24.7" height="28.3"/>
	<rect x="268.4" y="114.8" class="st2" width="24.7" height="28.3"/>
	<rect x="194.2" y="143" class="st2" width="24.7" height="28.3"/>
	<rect x="243.6" y="143" class="st2" width="24.7" height="28.3"/>
	<rect x="293.1" y="143" class="st2" width="24.7" height="28.3"/>
</g>
<g>
	<rect x="243.6" y="171.3" class="st1" width="24.7" height="28.3"/>
	<rect x="218.9" y="199.5" class="st1" width="24.7" height="28.3"/>
	<rect x="268.4" y="199.5" class="st1" width="24.7" height="28.3"/>
</g>
<g>
	<rect x="218.9" y="171.3" class="st2" width="24.7" height="28.3"/>
	<rect x="268.4" y="171.3" class="st2" width="24.7" height="28.3"/>
	<rect x="243.6" y="199.5" class="st2" width="24.7" height="28.3"/>
</g>
<g>
	<path class="st1" d="M317.8,114.8v79.4c0,34.1-27.7,61.8-61.8,61.8s-61.8-27.7-61.8-61.8v-79.4H317.8 M322.2,110.3h-4.4H194.2h-4.4
		v4.4v79.4c0,36.5,29.7,66.2,66.2,66.2s66.2-29.7,66.2-66.2v-79.4V110.3L322.2,110.3z"/>
	<path class="st1" d="M218.9,199.5v-28.2h-24.7v23c0,1.8,0.1,3.5,0.3,5.3L218.9,199.5L218.9,199.5z"/>
</g>
<g>
	<path class="st2" d="M317.5,199.5h-24.5v28.2h14.8C313.2,219.5,316.6,209.9,317.5,199.5z"/>
	<path class="st2" d="M204.1,227.8h14.8v-28.2h-24.4C195.4,209.9,198.8,219.5,204.1,227.8z"/>
</g>
<g>
	<path class="st1" d="M293.1,199.5h24.5c0.1-1.7,0.3-3.5,0.3-5.3v-23h-24.7V199.5z"/>
	<path class="st1" d="M218.9,243.6v-15.8h-14.8C208.1,233.9,213.1,239.2,218.9,243.6z"/>
	<path class="st1" d="M307.8,227.8h-14.8v15.8C298.9,239.2,303.9,233.9,307.8,227.8z"/>
</g>
<g>
	<path class="st2" d="M218.9,243.6c7.2,5.4,15.6,9.3,24.7,11.2v-27h-24.7V243.6z"/>
	<path class="st2" d="M268.4,254.8c9.1-1.9,17.5-5.8,24.7-11.2v-15.8h-24.7V254.8L268.4,254.8z"/>
</g>
<path class="st1" d="M268.4,227.8h-24.7v27c4,0.8,8.1,1.2,12.4,1.2c4.2,0,8.4-0.4,12.4-1.2L268.4,227.8L268.4,227.8z"/>
<g>
	<path class="st3" d="M211.3,68c-5.4-0.8-10.9-1.4-16.5-1.8c-4.3,3.6-8.5,7.3-12.4,11.1c3.9,9.5,7.9,19,11.8,28.5
		c7.9-3.3,16-5.9,24.2-7.9C216.1,88,213.7,78,211.3,68z"/>
	<path class="st3" d="M271,63.3c-4.8-2.4-9.8-4.7-15-6.8c-5.2,2.1-10.2,4.3-15,6.8c0.8,10.3,1.6,20.5,2.4,30.8
		c8.4-0.7,16.8-0.7,25.2,0C269.4,83.9,270.2,73.6,271,63.3z"/>
	<path class="st3" d="M329.6,77.4c-3.9-3.9-8.1-7.6-12.4-11.1c-5.6,0.3-11.1,0.9-16.5,1.8c-2.4,10-4.8,20-7.2,30
		c8.2,2,16.3,4.6,24.2,7.9C321.7,96.4,325.7,86.9,329.6,77.4z"/>
</g>
<g>
	<path class="st0" d="M241,63.3c-5.2-1.7-10.5-3.1-15.9-4.3c-4.8,2.8-9.4,5.9-13.8,9c2.4,10,4.8,20,7.2,30c8.2-2,16.6-3.3,25-3.9
		C242.6,83.9,241.8,73.6,241,63.3z"/>
	<path class="st0" d="M300.7,68c-4.4-3.2-9-6.2-13.8-9c-5.4,1.2-10.7,2.7-15.9,4.3c-0.8,10.3-1.6,20.5-2.4,30.8
		c8.4,0.7,16.7,2,25,3.9C295.9,88,298.3,78,300.7,68z"/>
</g>
<g>
	<path class="st1" d="M242,75.6c-9.3,0.7-18.6,2.2-27.8,4.4c-0.5-2-1-4-1.4-6c9.5-2.3,19.1-3.8,28.8-4.5
		C241.6,71.5,241.8,73.6,242,75.6z"/>
	<path class="st1" d="M242.9,88c-8.7,0.7-17.4,2-25.9,4.1c-0.5-2-1-4-1.4-6c8.9-2.1,17.8-3.5,26.9-4.2
		C242.6,83.9,242.8,85.9,242.9,88z"/>
</g>
<path class="st4" d="M285.3,90c-2.2-0.4-4.3-0.7-6.5-1c-3.6-0.5-6.2-3.5-5.9-6.9l0,0c0.3-3.4,3.7-5.9,7.6-5.3c2.3,0.3,4.6,0.7,7,1.1
	c3.9,0.7,6.4,4.1,5.6,7.4l0,0C292.3,88.6,288.9,90.7,285.3,90z"/>
<path class="st1" d="M320.2,100.2c-8.2-3.4-16.6-6.1-25.2-8.2c0.5-2,1-4,1.4-6c8.9,2.1,17.6,4.9,26.1,8.5
	C321.7,96.4,320.9,98.3,320.2,100.2z"/>
<g>
	<path class="st4" d="M318,81.7c-0.9,2.4-3.8,3.6-6.6,2.6c-2.8-0.9-4.5-3.6-3.8-6s3.7-3.8,6.6-2.8C317.2,76.5,318.8,79.3,318,81.7z"
		/>
	<path class="st4" d="M204.4,78.3c0.7,2.5-1,5.1-3.8,6c-2.8,0.9-5.7-0.2-6.6-2.6c-0.9-2.4,0.8-5.2,3.7-6.2
		C200.7,74.6,203.7,75.9,204.4,78.3z"/>
	<path class="st4" d="M254.6,74.3c0,2-1.8,3.7-4.1,3.8c-2.3,0.1-4.2-1.5-4.3-3.5c-0.1-2,1.7-3.8,4.1-3.9
		C252.6,70.6,254.6,72.2,254.6,74.3z"/>
	<path class="st4" d="M265.9,74.5c-0.1,2-2.1,3.6-4.3,3.5c-2.3-0.1-4.1-1.7-4.1-3.8c0-2,2-3.7,4.3-3.6
		C264.1,70.7,266,72.5,265.9,74.5z"/>
	<path class="st4" d="M260,83.8c-0.1,2-1.9,3.7-4,3.7c-2.2,0-3.9-1.6-4-3.7c-0.1-2,1.7-3.8,4-3.7C258.3,80.1,260.1,81.8,260,83.8z"
		/>
</g>
</svg>
