<?xml version="1.0" encoding="utf-8"?>
<!-- Generator: Adobe Illustrator 22.0.1, SVG Export Plug-In . SVG Version: 6.00 Build 0)  -->
<svg version="1.1" id="Layer_1" xmlns="http://www.w3.org/2000/svg" xmlns:xlink="http://www.w3.org/1999/xlink" x="0px" y="0px"
	 viewBox="0 0 512 335.4" style="enable-background:new 0 0 512 335.4;" xml:space="preserve">
<style type="text/css">
	.st0{fill:#F5F5F5;}
	.st1{fill:#41479B;}
</style>
<g>
	<rect y="37.3" class="st0" width="512" height="37.3"/>
	<rect y="111.8" class="st0" width="512" height="37.3"/>
	<rect y="186.4" class="st0" width="512" height="37.3"/>
</g>
<rect y="223.6" class="st1" width="512" height="37.3"/>
<rect y="260.9" class="st0" width="512" height="37.3"/>
<g>
	<path class="st1" d="M8.8,335.4h494.3c4.9,0,8.8-4,8.8-8.8v-28.4H0v28.4C0,331.5,4,335.4,8.8,335.4z"/>
	<path class="st1" d="M512,37.3V8.8c0-4.9-4-8.8-8.8-8.8H8.8C4,0,0,4,0,8.8v65.7v37.3v74.5h512v-37.3H176.6v-37.3H512V74.5H176.6
		V37.3C176.6,37.3,512,37.3,512,37.3z"/>
</g>
<polygon class="st0" points="176.6,74.5 106.9,74.5 106.9,0 69.6,0 69.6,74.5 0,74.5 0,111.8 69.6,111.8 69.6,186.4 106.9,186.4 
	106.9,111.8 176.6,111.8 "/>
</svg>
