<?xml version="1.0" encoding="utf-8"?>
<!-- Generator: Adobe Illustrator 22.0.1, SVG Export Plug-In . SVG Version: 6.00 Build 0)  -->
<svg version="1.1" id="Layer_1" xmlns="http://www.w3.org/2000/svg" xmlns:xlink="http://www.w3.org/1999/xlink" x="0px" y="0px"
	 viewBox="0 0 512 335.4" style="enable-background:new 0 0 512 335.4;" xml:space="preserve">
<style type="text/css">
	.st0{fill:#FF4B55;}
	.st1{fill:#F5F5F5;}
	.st2{fill:#CDCDCD;}
	.st3{fill:#B4A08C;}
</style>
<path class="st0" d="M503.2,0H256v335.4h247.2c4.9,0,8.8-4,8.8-8.8V8.8C512,4,508,0,503.2,0z"/>
<path class="st1" d="M8.8,335.4H256V0H8.8C4,0,0,4,0,8.8v317.8C0,331.5,4,335.4,8.8,335.4z"/>
<path class="st0" d="M73.6,20.6v23.6c1.3,0.1,2.8,0.6,4,1.8s1.8,2.7,1.8,4H103v23.5H79.4c-0.1,1.3-0.6,2.8-1.8,4s-2.7,1.8-4,1.8V103
	H50V79.4c-1.3-0.1-2.8-0.6-4-1.8s-1.8-2.7-1.8-4H20.6V50h23.6c0.1-1.3,0.6-2.8,1.8-4s2.7-1.8,4-1.8V20.6L73.6,20.6 M76.5,17.7h-2.9
	H50h-2.9v2.9v21.3C46,42.4,44.9,43.1,44,44c-0.9,0.9-1.6,2-2.1,3.1H20.6h-2.9V50v23.5v2.9h2.9h21.3c0.5,1.1,1.2,2.2,2.1,3.1
	c0.9,0.9,2,1.6,3.1,2.1V103v2.9H50h23.5h2.9V103V81.7c1.1-0.5,2.2-1.2,3.1-2.1c0.9-0.9,1.6-2,2.1-3.1H103h2.9v-2.9V50v-2.9H103H81.7
	c-0.5-1.1-1.2-2.2-2.1-3.1c-0.9-0.9-2-1.6-3.1-2.1V20.6L76.5,17.7L76.5,17.7z"/>
<polygon class="st2" points="103,50 73.6,50 73.6,20.6 50,20.6 50,50 20.6,50 20.6,73.6 50,73.6 50,103 73.6,103 73.6,73.6 
	103,73.6 "/>
<g>
	<circle class="st3" cx="61.8" cy="61.8" r="11.8"/>
	<ellipse transform="matrix(0.7071 -0.7071 0.7071 0.7071 -38.7335 56.3513)" class="st3" cx="48.7" cy="74.9" rx="3.7" ry="5.2"/>
	<ellipse transform="matrix(0.7071 -0.7071 0.7071 0.7071 -31.0302 74.9297)" class="st3" cx="74.9" cy="74.9" rx="5.2" ry="3.7"/>
	<ellipse transform="matrix(0.7071 -0.7071 0.7071 0.7071 -12.463 67.2302)" class="st3" cx="74.9" cy="48.7" rx="3.7" ry="5.2"/>
	<ellipse transform="matrix(0.7071 -0.7071 0.7071 0.7071 -20.1545 48.6526)" class="st3" cx="48.7" cy="48.7" rx="5.2" ry="3.7"/>
	<path class="st3" d="M61.8,77.9c-8.9,0-16.1-7.2-16.1-16.1s7.2-16.1,16.1-16.1s16.1,7.2,16.1,16.1C77.9,70.7,70.7,77.9,61.8,77.9z
		 M61.8,47.2c-8.1,0-14.6,6.6-14.6,14.6s6.6,14.6,14.6,14.6s14.6-6.6,14.6-14.6S69.9,47.2,61.8,47.2z"/>
</g>
</svg>
