<?xml version="1.0" encoding="utf-8"?>
<!-- Generator: Adobe Illustrator 22.0.1, SVG Export Plug-In . SVG Version: 6.00 Build 0)  -->
<svg version="1.1" id="Layer_1" xmlns="http://www.w3.org/2000/svg" xmlns:xlink="http://www.w3.org/1999/xlink" x="0px" y="0px"
	 viewBox="0 0 512 335.5" style="enable-background:new 0 0 512 335.5;" xml:space="preserve">
<style type="text/css">
	.st0{fill:#FF4B55;}
	.st1{fill:#FFE15A;}
	.st2{fill:#41479B;}
	.st3{fill:#FFCD5A;}
	.st4{fill:#FFBE5A;}
	.st5{fill:#FFAA5A;}
	.st6{fill:#73AF00;}
	.st7{fill:#FF875A;}
</style>
<path class="st0" d="M341.3,0h161.8c4.9,0,8.8,4,8.8,8.8v317.8c0,4.9-4,8.8-8.8,8.8H341.3V0z"/>
<rect x="170.7" y="0" class="st1" width="170.7" height="335.5"/>
<path class="st2" d="M8.8,0h161.8v335.4H8.8c-4.9,0-8.8-4-8.8-8.8V8.8C0,4,4,0,8.8,0z"/>
<rect x="276.6" y="198.3" transform="matrix(0.775 -0.6319 0.6319 0.775 -72.4608 224.785)" class="st3" width="5.7" height="31.7"/>
<rect x="268.2" y="200.3" transform="matrix(0.7753 -0.6316 0.6316 0.7753 -69.3933 219.547)" class="st4" width="11.3" height="13.9"/>
<rect x="219.2" y="211.3" transform="matrix(0.6319 -0.775 0.775 0.6319 -79.4904 260.9486)" class="st3" width="31.7" height="5.7"/>
<rect x="233.6" y="201.6" transform="matrix(0.6316 -0.7753 0.7753 0.6316 -72.088 262.8929)" class="st4" width="13.9" height="11.3"/>
<polygon class="st1" points="250.1,209.3 236,237.6 255.8,251.8 255.8,212.1 "/>
<polygon class="st3" points="261.5,209.3 275.6,237.6 255.8,251.8 255.8,212.1 "/>
<path class="st4" d="M216.1,209.3v-73.6h8.5c0,0,0,48.2,0,56.7C224.6,200.8,216.1,209.3,216.1,209.3z"/>
<path class="st3" d="M210.5,223.5v-87.8h8.5c0,0,0,62.3,0,70.8C219,215,210.5,223.5,210.5,223.5z"/>
<path class="st1" d="M204.8,234.8v-99.1h8.5c0,0,0,73.6,0,82.1C213.3,226.3,204.8,234.8,204.8,234.8z"/>
<path class="st0" d="M224.6,138.5c0,0,0,40.4,0,53.8c0,14.2,20.5,12.3,31.2,22.7c10.6-10.4,31.2-8.5,31.2-22.7c0-13.5,0-53.8,0-53.8
	H224.6L224.6,138.5z"/>
<path class="st2" d="M224.6,169.7c0,9,0,17.7,0,22.7c0,14.2,20.5,12.3,31.2,22.7c10.6-10.4,31.2-8.5,31.2-22.7c0-5,0-13.7,0-22.7
	L224.6,169.7L224.6,169.7z"/>
<g>
	<polygon class="st1" points="255.8,206.5 247.3,200.8 247.3,198 250.1,195.1 250.1,178.1 241.6,172.5 250.1,161.2 253,161.2 
		255.8,164 258.6,161.2 261.5,161.2 270,172.5 261.5,178.1 261.5,195.1 264.3,198 264.3,200.8 	"/>
	<path class="st1" d="M244.5,141.3c0,0-11.3,2.8-11.3,14.2s11.3,17,11.3,17l5.7-8.5C233.1,158.3,244.5,141.3,244.5,141.3z"/>
	<path class="st1" d="M267.1,141.3c0,0,11.3,2.8,11.3,14.2s-11.3,17-11.3,17l-5.7-8.5C278.5,158.3,267.1,141.3,267.1,141.3z"/>
	<polygon class="st1" points="227.5,169.7 233.1,172.5 238.8,169.7 233.1,166.8 	"/>
	<polygon class="st1" points="272.8,169.7 278.5,172.5 284.1,169.7 278.5,166.8 	"/>
	<polygon class="st1" points="255.8,142.7 257.9,144.9 260.8,144.8 260.8,147.8 262.9,149.8 260.8,151.9 260.8,154.8 257.9,154.8 
		255.8,156.9 253.7,154.8 250.8,154.8 250.8,151.9 248.7,149.8 250.8,147.8 250.8,144.8 253.7,144.9 	"/>
	<path class="st1" d="M236.6,182l2,2.3l2.8-1.1c1.5-0.6,2.9,1,2.1,2.4l-1.5,2.6l1.9,2.4c1,1.2-0.1,3-1.6,2.7l-3-0.6l-1.6,2.6
		c-0.8,1.3-2.9,0.9-3.1-0.7l-0.3-3l-3-0.8c-1.5-0.4-1.7-2.5-0.3-3.1l2.8-1.2l-0.2-3C233.6,181.7,235.5,180.8,236.6,182z"/>
	<path class="st1" d="M274.3,188.5c0.6-3.2,3.3-5.5,6.4-5.8c-0.6-0.3-1.3-0.6-2.1-0.8c-4-0.8-7.8,1.8-8.6,5.8
		c-0.8,4,1.8,7.8,5.8,8.6c0.7,0.1,1.5,0.1,2.2,0.1C275.3,194.8,273.7,191.7,274.3,188.5z"/>
	<path class="st1" d="M244.5,138.5l5.7-28.3l-11.3-8.5l2.8-2.8h5.7c0,0,2.8-2.8,8.5-2.8c5.7,0,11.3,2.8,11.3,11.3s2.8,31.2,2.8,31.2
		L244.5,138.5L244.5,138.5L244.5,138.5z"/>
</g>
<path class="st5" d="M224.6,127.2c-6.3,0-11.3,5.1-11.3,11.3H236C236,132.2,230.9,127.2,224.6,127.2z"/>
<g>
	<path class="st4" d="M221.8,138.5h-17v-18.9c0-3.7,3-6.6,6.6-6.6h3.7c3.7,0,6.6,3,6.6,6.6L221.8,138.5L221.8,138.5z"/>
	<path class="st4" d="M295.5,209.3v-73.6H287c0,0,0,48.2,0,56.7C287,200.8,295.5,209.3,295.5,209.3z"/>
</g>
<path class="st3" d="M301.1,223.5v-87.8h-8.5c0,0,0,62.3,0,70.8S301.1,223.5,301.1,223.5z"/>
<path class="st1" d="M306.8,234.8v-99.1h-8.5c0,0,0,73.6,0,82.1C298.3,226.3,306.8,234.8,306.8,234.8z"/>
<path class="st5" d="M287,127.2c6.3,0,11.3,5.1,11.3,11.3h-22.7C275.6,132.2,280.7,127.2,287,127.2z"/>
<path class="st4" d="M289.8,138.5h17v-18.9c0-3.7-3-6.6-6.6-6.6h-3.7c-3.7,0-6.6,3-6.6,6.6L289.8,138.5L289.8,138.5z"/>
<rect x="262.8" y="200.1" transform="matrix(0.5201 -0.8541 0.8541 0.5201 -28.2949 354.0902)" class="st5" width="76.3" height="4.2"/>
<rect x="282.4" y="220.5" transform="matrix(0.6244 -0.7811 0.7811 0.6244 -67.5139 309.5144)" class="st1" width="11.3" height="8.9"/>
<rect x="308.3" y="173.1" transform="matrix(0.5199 -0.8542 0.8542 0.5199 1.0619 355.1534)" class="st3" width="16.3" height="7.1"/>
<g>
	
		<rect x="211.6" y="166.6" transform="matrix(0.8398 -0.5429 0.5429 0.8398 -76.3337 148.2646)" class="st6" width="2.8" height="73.7"/>
	<path class="st6" d="M219.4,201.1c-1,1.2-1.7,2.9-1.9,4.9c-1.4-1.4-3-2.3-4.5-2.5c-0.4,1.5-0.2,3.3,0.5,5.1
		c-1.9-0.7-3.8-0.8-5.2-0.3c0.4,2.1,2.1,4.4,4.7,5.9c2.6,1.6,5.4,2,7.4,1.3l0.6-0.4c1.4-1.6,2.2-4.3,1.8-7.3
		C222.5,204.8,221.1,202.3,219.4,201.1z"/>
</g>
<circle class="st0" cx="220.8" cy="215.4" r="2.8"/>
<path class="st6" d="M208.6,184.5c-1,1.2-1.7,2.9-1.9,4.9c-1.4-1.4-3-2.3-4.5-2.5c-0.4,1.5-0.2,3.3,0.5,5.1
	c-1.9-0.7-3.8-0.8-5.2-0.3c0.4,2.1,2.1,4.4,4.7,5.9c2.6,1.6,5.4,2,7.4,1.3l0.6-0.4c1.4-1.6,2.2-4.3,1.8-7.3
	C211.8,188.2,210.4,185.7,208.6,184.5z"/>
<circle class="st0" cx="210" cy="198.7" r="2.8"/>
<path class="st6" d="M197.9,167.8c-1,1.2-1.7,2.9-1.9,4.9c-1.4-1.4-3-2.3-4.5-2.5c-0.4,1.5-0.2,3.3,0.5,5.1
	c-1.9-0.7-3.8-0.8-5.2-0.3c0.4,2.1,2.1,4.4,4.7,5.9c2.6,1.6,5.4,2,7.4,1.3l0.6-0.4c1.4-1.6,2.2-4.3,1.8-7.3
	C201,171.5,199.6,169,197.9,167.8z"/>
<circle class="st0" cx="199.2" cy="182.1" r="2.8"/>
<g>
	
		<rect x="221.9" y="219.3" transform="matrix(0.7811 -0.6244 0.6244 0.7811 -90.9207 190.5915)" class="st1" width="8.9" height="11.3"/>
	<rect x="238.8" y="90.3" class="st1" width="2.8" height="19.8"/>
	<rect x="236" y="93.2" class="st1" width="8.5" height="2.8"/>
</g>
<polygon class="st7" points="238.8,101.7 247.3,108 247.3,98.8 241.6,98.8 "/>
<path class="st5" d="M241.6,90.3v2.8h2.8V96h-2.8v2.8h5.7c0,0,2.8-2.8,8.5-2.8s11.3,2.8,11.3,11.3c0,8.5,2.8,31.2,2.8,31.2h5.7
	c0-6.3,5.1-11.3,11.3-11.3c1,0,1.9,0.2,2.8,0.4v-6.1c0-4.7,3.8-8.5,8.5-8.5s8.5,3.8,8.5,8.5v14.2v2.8v50l3.7-6l-1.2-0.7l8.5-14
	l1.2,0.7l0,0l1.8,1.1l3,1.8l-8.5,14l-1.2-0.7l-7.3,12v38.1c0,0-6.8-6.8-8.2-14.3c-1-1.3-2.2-3-3.3-5l-3.2,5.3l3,2.4l-7.1,8.9
	l-1.9-1.5l-3.2,5.3l-3.6-2.2l3.5-5.7l-1.7-1.4l2.4-3l-7.4-9.1l-2.2,1.8l-6.6-8.1c-1.8,0.7-3.5,1.5-5.2,2.4l13.5,27.1l-19.8,14.2
	L236,237.6l13.5-27.1c-1-0.5-2-1-3.1-1.5l-5.9,7.2l-2.2-1.8l-7.4,9.1l2.4,3l-2.4,1.9l3.3,5.1l-2.4,1.5l-3.1-4.8l-2.3,1.8l-7.1-8.9
	l3.2-2.5l-1.7-2.6c0,0-0.1,0-0.1,0c-0.9,0-1.8-0.4-2.4-1.2c-0.2-0.4-0.4-0.7-0.4-1.1c-0.5,0-1.1-0.1-1.6-0.2c-1.1,1.9-2.3,3.6-3.3,5
	c-1.4,7.5-8.2,14.3-8.2,14.3v-36.1c-0.9-0.3-1.7-0.6-2.6-1.1c-2.6-1.6-4.3-3.8-4.7-5.9c0.6-0.2,1.3-0.3,2-0.3c1,0,2.1,0.2,3.3,0.6
	c-0.4-1-0.6-1.9-0.7-2.8l-2.8-4.3c0,0-0.1,0-0.1,0c-0.9,0-1.8-0.4-2.4-1.2c-0.2-0.4-0.4-0.7-0.4-1.1c-1.6-0.1-3.3-0.6-4.9-1.6
	c-2.6-1.6-4.3-3.8-4.7-5.9c0.6-0.2,1.3-0.3,2-0.3c1,0,2.1,0.2,3.3,0.6c-0.7-1.9-0.9-3.7-0.5-5.1c1.5,0.2,3.1,1.1,4.5,2.5
	c0.2-2,0.8-3.8,1.9-4.9c1.7,1.2,3.1,3.7,3.4,6.7c0.2,1.9,0,3.7-0.6,5.1c0.3,0.2,0.6,0.5,0.9,0.8c0.6,0.9,0.5,1.9,0.1,2.8l2.8,4.3
	c0.1,0.1,0.2,0.1,0.3,0.2v-49.3v-2.8v-14.2c0-4.7,3.8-8.5,8.5-8.5c4.7,0,8.5,3.8,8.5,8.5v6.1c0.9-0.2,1.8-0.4,2.8-0.4
	c6.3,0,11.3,5.1,11.3,11.3h8.5l5.7-28.3l-2.8-2.1l-5.7-4.2v6.4h-2.8V96H236v-2.8h2.8v-2.8L241.6,90.3 M287.1,219.1l1-1.3l0.6,0.4
	l4.6-7.5c-0.4-1.4-0.7-2.8-0.7-4.2c0-0.1,0-0.3,0-0.5c-2.5-3.3-5.7-8.5-5.7-13.7c0,6-3.7,9.1-8.7,11.5l4.4,5.4l-2.2,1.8L287.1,219.1
	 M224.8,219l1.5-1.2l1,1.3l6.7-8.2l-2.2-1.8l3.6-4.4c-6.1-2.5-10.8-5.6-10.8-12.4c0,3.8-1.7,7.6-3.6,10.6c0.9,1.3,1.6,3,1.8,4.9
	c0.2,1.9,0,3.7-0.6,5.1c0.3,0.2,0.6,0.5,0.9,0.8c0.6,0.9,0.5,1.9,0.1,2.8L224.8,219 M241.6,88.2h-2.8c-1.2,0-2.1,1-2.1,2.1V91H236
	c-1.2,0-2.1,1-2.1,2.1V96c0,1.2,1,2.1,2.1,2.1h0.7v12c0,1.2,1,2.1,2.1,2.1h2.8c1.2,0,2.1-1,2.1-2.1V108l2.3,1.7l1.8,1.3l-5.1,25.3
	h-4.8c-1-6.4-6.6-11.3-13.3-11.3c-0.2,0-0.5,0-0.7,0v-3.6c0-5.9-4.8-10.6-10.6-10.6s-10.6,4.8-10.6,10.6v14.2v2.8v32.6
	c-0.8-2.1-2-3.9-3.6-5c-0.4-0.3-0.8-0.4-1.2-0.4c-0.6,0-1.2,0.2-1.6,0.7c-0.7,0.7-1.2,1.6-1.6,2.7c-0.9-0.5-1.9-0.8-2.8-1
	c-0.1,0-0.2,0-0.3,0c-0.9,0-1.8,0.6-2,1.6c-0.2,0.9-0.3,1.9-0.3,3c-0.2,0-0.3,0-0.5,0c-0.9,0-1.8,0.1-2.6,0.4
	c-1,0.3-1.7,1.4-1.5,2.4c0.6,2.8,2.7,5.5,5.7,7.3c1.4,0.8,2.9,1.4,4.5,1.7c0.1,0.1,0.1,0.2,0.2,0.3c0.7,1.1,1.8,1.8,3,2.1l1.5,2.4
	c-0.1,0-0.1,0-0.2,0c-0.9,0-1.8,0.1-2.6,0.4c-1,0.3-1.7,1.4-1.5,2.4c0.6,2.8,2.7,5.5,5.7,7.3c0.5,0.3,1,0.5,1.5,0.8v34.6
	c0,0.9,0.5,1.6,1.3,2c0.3,0.1,0.5,0.2,0.8,0.2c0.6,0,1.1-0.2,1.5-0.6c0.3-0.3,7-7,8.7-14.9c0.7-0.9,1.4-1.9,2-2.8
	c0.7,0.8,1.6,1.3,2.6,1.6l0.1,0.1l-1.7,1.3c-0.4,0.4-0.7,0.9-0.8,1.4c-0.1,0.6,0.1,1.1,0.5,1.6l7.1,8.9c0.4,0.4,0.9,0.7,1.4,0.8
	c0.1,0,0.2,0,0.2,0c0.5,0,0.9-0.2,1.3-0.5l0.5-0.4l1.9,2.9c0.3,0.5,0.8,0.8,1.3,0.9c0.1,0,0.3,0,0.4,0c0.4,0,0.8-0.1,1.2-0.3
	l1.4-0.9l-0.3,0.6c-0.5,0.9-0.2,2.1,0.7,2.7l19.8,14.2c0.4,0.3,0.8,0.4,1.2,0.4s0.9-0.1,1.2-0.4l19.8-14.2c0.9-0.6,1.1-1.7,0.7-2.7
	l-12.6-25.2c0.5-0.3,1.1-0.5,1.7-0.8l5.6,6.9c0.4,0.5,1,0.8,1.6,0.8c0.5,0,0.9-0.2,1.3-0.5l0.6-0.4l5,6.1l-1.3,1.7
	c-0.4,0.4-0.5,1-0.5,1.6c0.1,0.6,0.3,1.1,0.8,1.4l0.2,0.2l-2.5,4.1c-0.6,1-0.3,2.3,0.7,2.9l3.6,2.2c0.3,0.2,0.7,0.3,1.1,0.3
	c0.2,0,0.3,0,0.5-0.1c0.5-0.1,1-0.5,1.3-1l1.9-3.2c0.4,0.3,0.9,0.5,1.3,0.5c0.6,0,1.2-0.3,1.7-0.8l7.1-8.9c0.3-0.3,0.4-0.7,0.5-1.1
	c2.3,6.9,7.8,12.5,8.1,12.8c0.4,0.4,1,0.6,1.5,0.6c0.3,0,0.5-0.1,0.8-0.2c0.8-0.3,1.3-1.1,1.3-2v-37.5l5.9-9.8c0.1,0,0.3,0,0.4,0
	c0.7,0,1.4-0.4,1.8-1l8.5-14c0.3-0.5,0.4-1.1,0.2-1.6c-0.1-0.5-0.5-1-1-1.3l-3-1.8l-1.8-1.1l-1.2-0.7c-0.3-0.2-0.7-0.3-1.1-0.3
	c-0.7,0-1.4,0.4-1.8,1l-7,11.5v-39.7v-2.8v-14.2c0-5.9-4.8-10.6-10.6-10.6s-10.6,4.8-10.6,10.6v3.6c-0.2,0-0.5,0-0.7,0
	c-6.7,0-12.3,4.9-13.3,11.3h-1.8c-0.7-5.6-2.6-22.2-2.6-29c0-9.9-7-13.5-13.5-13.5c-4.8,0-7.9,1.8-9.3,2.8h-0.1
	c0.1-0.2,0.1-0.5,0.1-0.7v-2.8c0-1.2-1-2.1-2.1-2.1h-0.7v-0.7C243.8,89.2,242.8,88.2,241.6,88.2L241.6,88.2z M223.6,202.9
	c0.5-1,1-1.9,1.4-2.8c1.8,2.4,4.3,4.1,7,5.4l-1.9,2.3c-0.4,0.4-0.5,1-0.5,1.6s0.3,1.1,0.8,1.4l0.5,0.4l-3.8,4.6
	c-0.2-0.1-0.5-0.2-0.7-0.2c-0.1,0-0.2,0-0.2,0c-0.2,0-0.4,0-0.6,0.1c0.1-1.1-0.2-2.1-0.8-3.1c-0.1-0.1-0.1-0.2-0.2-0.3
	c0.4-1.5,0.5-3.1,0.3-4.8C224.8,205.9,224.3,204.3,223.6,202.9L223.6,202.9z M281.6,204.4c1.9-1.1,3.7-2.5,5.1-4.3
	c1.1,2.5,2.5,4.7,3.9,6.6c0,1.2,0.2,2.4,0.5,3.7l-3.2,5.3c-0.2,0-0.4,0.1-0.5,0.2l-3.8-4.6l0.5-0.4c0.4-0.4,0.7-0.9,0.8-1.4
	s-0.1-1.1-0.5-1.6L281.6,204.4L281.6,204.4z M240.6,218.4c0.6,0,1.2-0.3,1.6-0.8l3.6-4.4l-9.7,19.4c0,0-0.1-0.1-0.1-0.1l-2.2-3.5
	l0.9-0.7c0.4-0.4,0.7-0.9,0.8-1.4c0.1-0.6-0.1-1.1-0.5-1.6l-1.3-1.7l5-6.1l0.6,0.4C239.6,218.3,240.1,218.4,240.6,218.4L240.6,218.4
	z M294.9,220.4l0.5-0.8c0.4,0.6,0.8,1.2,1.3,1.8c0,0.2,0.1,0.4,0.1,0.5c-0.1-0.1-0.2-0.2-0.3-0.3L294.9,220.4L294.9,220.4z"/>
</svg>
