<?xml version="1.0" encoding="utf-8"?>
<!-- Generator: Adobe Illustrator 22.0.1, SVG Export Plug-In . SVG Version: 6.00 Build 0)  -->
<svg version="1.1" id="Layer_1" xmlns="http://www.w3.org/2000/svg" xmlns:xlink="http://www.w3.org/1999/xlink" x="0px" y="0px"
	 viewBox="0 0 512 335.4" style="enable-background:new 0 0 512 335.4;" xml:space="preserve">
<style type="text/css">
	.st0{fill:#FF4B55;}
	.st1{fill:#FFE15A;}
</style>
<path class="st0" d="M503.2,335.4H8.8c-4.9,0-8.8-4-8.8-8.8V8.8C0,4,4,0,8.8,0h494.3c4.9,0,8.8,4,8.8,8.8v317.8
	C512,331.5,508,335.4,503.2,335.4z"/>
<g>
	<path class="st1" d="M225.7,135.7C225.7,135.7,225.7,135.7,225.7,135.7L97.1,0H8.8c-2.1,0-4,0.9-5.6,2.1l215.9,141.4
		C221,140.7,223.2,138.1,225.7,135.7z"/>
	<path class="st1" d="M212.3,172.2c-0.2-1.5-0.5-3-0.5-4.5c0-1.5,0.3-3,0.5-4.5v0L0,141.2v53L212.3,172.2L212.3,172.2z"/>
	<path class="st1" d="M249.1,124.3c2.3-0.4,4.5-0.7,6.9-0.7c2.4,0,4.6,0.3,6.9,0.7h0L282.5,0h-53L249.1,124.3L249.1,124.3z"/>
	<path class="st1" d="M292.9,143.6L508.7,2.1c-1.5-1.3-3.4-2.1-5.6-2.1h-88.3L286.3,135.8c0,0,0,0,0,0
		C288.8,138.1,291,140.7,292.9,143.6z"/>
	<path class="st1" d="M286.3,199.7C286.3,199.7,286.3,199.7,286.3,199.7l128.6,135.7h88.3c2.1,0,4-0.9,5.6-2.1L292.9,191.9
		C291,194.8,288.8,197.4,286.3,199.7z"/>
	<path class="st1" d="M299.7,163.2L299.7,163.2c0.2,1.5,0.5,3,0.5,4.5s-0.3,3-0.5,4.5v0l212.3,22v-53L299.7,163.2z"/>
	<path class="st1" d="M262.9,211.2c-2.3,0.4-4.5,0.7-6.9,0.7s-4.6-0.3-6.9-0.7h0l-19.6,124.3h53L262.9,211.2L262.9,211.2z"/>
	<path class="st1" d="M219.1,191.9L3.3,333.3c1.5,1.3,3.4,2.1,5.6,2.1h88.3l128.6-135.8c0,0,0,0,0,0
		C223.2,197.4,221,194.8,219.1,191.9z"/>
	<circle class="st1" cx="256" cy="167.7" r="35.3"/>
</g>
</svg>
