<?xml version="1.0" encoding="utf-8"?>
<!-- Generator: Adobe Illustrator 22.0.1, SVG Export Plug-In . SVG Version: 6.00 Build 0)  -->
<svg version="1.1" id="Layer_1" xmlns="http://www.w3.org/2000/svg" xmlns:xlink="http://www.w3.org/1999/xlink" x="0px" y="0px"
	 viewBox="0 0 512 335.4" style="enable-background:new 0 0 512 335.4;" xml:space="preserve">
<style type="text/css">
	.st0{fill:#F5F5F5;}
	.st1{fill:#FF4B55;}
	.st2{fill:#41479B;}
	.st3{fill:#FFE15A;}
	.st4{fill:#FFD350;}
	.st5{fill:#FFBE50;}
	.st6{fill:#A54B50;}
</style>
<path class="st0" d="M0,223.6h512v103c0,4.9-4,8.8-8.8,8.8H8.8c-4.9,0-8.8-4-8.8-8.8V223.6z"/>
<path class="st1" d="M8.8,0h494.3c4.9,0,8.8,4,8.8,8.8v103H0V8.8C0,4,4,0,8.8,0z"/>
<rect y="111.8" class="st2" width="512" height="111.8"/>
<polygon class="st3" points="173,111.8 109.5,111.8 106.8,95.9 175.7,95.9 "/>
<polygon class="st4" points="108.8,107.8 109.5,111.8 173,111.8 173.7,107.8 "/>
<g>
	<rect x="139.9" y="58.8" class="st3" width="2.6" height="10.6"/>
	<rect x="137.3" y="61.5" class="st3" width="7.9" height="2.6"/>
	<path class="st3" d="M173.2,101.2c-0.3,0-0.6-0.1-0.9-0.2c-1.4-0.5-2.1-2-1.6-3.4l5.6-15.5c0.3-0.8,0.2-1.6-0.2-2.3
		c-0.2-0.4-0.7-1-1.6-1.2c-6.8-1.5-20.1-3.9-32-3.9H140c-11.9,0-25.2,2.4-32,3.9c-0.9,0.2-1.4,0.9-1.6,1.2c-0.4,0.7-0.5,1.6-0.2,2.3
		l5.6,15.5c0.5,1.4-0.2,2.9-1.6,3.4c-1.4,0.5-2.9-0.2-3.4-1.6L101.2,84c-0.8-2.2-0.6-4.6,0.5-6.7c1.1-2,3-3.4,5.1-3.8
		c7-1.5,20.7-4,33.1-4h2.6c12.4,0,26.1,2.5,33.1,4c2.2,0.5,4.1,1.9,5.2,3.8c1.1,2,1.3,4.5,0.5,6.7l-5.6,15.5
		C175.3,100.5,174.3,101.2,173.2,101.2z"/>
	<path class="st3" d="M141.3,98.9c-1.5,0-2.6-1.2-2.6-2.6V74.7c0-1.5,1.2-2.6,2.6-2.6s2.6,1.2,2.6,2.6v21.5
		C143.9,97.7,142.7,98.9,141.3,98.9z"/>
	<path class="st3" d="M159.6,101.2c-0.2,0-0.4,0-0.5-0.1c-1.4-0.3-2.4-1.7-2.1-3.1l3.2-15.5c0.4-2-0.2-3.8-0.6-4.1
		c-3.7-1.3-11-3.7-17.6-3.7h-1.5c-6.6,0-13.9,2.4-17.7,3.8c-0.2,0.2-0.9,2-0.5,4l3.2,15.5c0.3,1.4-0.6,2.8-2.1,3.1
		c-1.4,0.3-2.8-0.6-3.1-2.1l-3.2-15.5c-0.8-3.9,0.4-8.8,3.8-10.1c5.1-1.9,12.6-4.1,19.6-4.1h1.5c7,0,14.5,2.2,19.6,4.1
		c3.4,1.3,4.6,6.2,3.8,10.1l-3.2,15.5C161.9,100.3,160.8,101.2,159.6,101.2z"/>
</g>
<polygon class="st4" points="107.5,99.9 175,99.9 175.7,95.9 106.8,95.9 "/>
<path class="st1" d="M90.9,111.8c-1.5,0-2.6,1.2-2.6,2.6v92.5c0,29.4,23.7,53.2,53,53.2s53-23.8,53-53.2v-92.5
	c0-1.5-1.2-2.6-2.6-2.6L90.9,111.8L90.9,111.8z"/>
<path class="st0" d="M146.5,199.2l5.3-13.2l-10.6,2.6l-10.6-2.6l5.3,13.2l-13.2,45c0,0,7.9,5.3,18.5,5.3s18.5-5.3,18.5-5.3
	L146.5,199.2z"/>
<polygon class="st3" points="122.1,209.9 117.4,211 127.7,192.5 123,190 110.6,212.4 98.9,212.4 98.9,217.7 104.6,217.7 97.2,223.6 
	100.5,227.7 106.8,222.7 104.3,230.1 109.3,231.8 114.2,217.3 123.3,215 "/>
<path class="st0" d="M122.7,138.3l-12.1-6c-2.2-1.1-3.4-3.6-2.8-6l0.7-2.7c0.5-1.9-1-3.7-2.9-3.7c-0.9,0-1.8,0.4-2.3,1.1
	c-6.3,7.8-9.7,17.6-9.7,27.6v56c0,0,11.1-2.2,21-16.7c1.8-2.7,4.9-4.2,8.1-4.4l-5.3,15.9l10.6,2.6l9.3-11L122.7,138.3z"/>
<polygon class="st3" points="160.4,209.9 165.1,211 154.8,192.5 159.4,190 171.9,212.4 183.6,212.4 183.6,217.7 177.9,217.7 
	185.3,223.6 182,227.7 175.7,222.7 178.2,230.1 173.2,231.8 168.3,217.3 159.1,215 "/>
<path class="st0" d="M159.8,138.3l12.1-6c2.2-1.1,3.4-3.6,2.8-6l-0.7-2.7c-0.5-1.9,1-3.7,2.9-3.7c0.9,0,1.8,0.4,2.3,1.1
	c6.3,7.8,9.7,17.6,9.7,27.6v56c0,0-11.1-2.2-21-16.7c-1.8-2.7-4.9-4.2-8.1-4.4l5.3,15.9l-10.6,2.6l-9.3-11L159.8,138.3z"/>
<g>
	<polygon class="st3" points="125.4,119.7 112.1,119.7 116.1,125 125.4,127.7 120.1,130.3 128,130.3 	"/>
	<polygon class="st3" points="157.1,119.7 170.4,119.7 166.4,125 157.1,127.7 162.4,130.3 154.5,130.3 	"/>
</g>
<path class="st0" d="M159,117.7l-12.5,2.1l-5.3,10.6l-5.3-10.6l-12.5-2.1c-1.4-0.2-2.5,1.2-1.9,2.5L128,133l-5.3,5.3h18.5h18.5
	l-5.3-5.3l6.4-12.8C161.5,118.9,160.4,117.4,159,117.7z"/>
<circle class="st5" cx="141.2" cy="97.1" r="4"/>
<ellipse class="st2" cx="141.2" cy="106.5" rx="3.1" ry="2.2"/>
<ellipse class="st1" cx="125.5" cy="106.5" rx="3.1" ry="2.2"/>
<g>
	<ellipse class="st2" cx="109.8" cy="106.5" rx="3.1" ry="2.2"/>
	<ellipse class="st2" cx="172.5" cy="106.5" rx="3.1" ry="2.2"/>
</g>
<ellipse class="st1" cx="156.9" cy="106.5" rx="3.1" ry="2.2"/>
<g>
	<circle class="st5" cx="159.6" cy="97.1" r="4"/>
	<circle class="st5" cx="174.2" cy="97.1" r="4"/>
	<circle class="st5" cx="122.9" cy="97.1" r="4"/>
	<circle class="st5" cx="108.3" cy="97.1" r="4"/>
</g>
<path class="st2" d="M145.8,74.7c0.5-0.8,0.7-1.7,0.7-2.6c0-2.9-2.4-5.3-5.3-5.3s-5.3,2.4-5.3,5.3c0,1,0.3,1.9,0.7,2.6H145.8z"/>
<path class="st1" d="M141.2,192.6c-11,0-19.9-8.9-19.9-19.9V137h39.7v35.8C161.1,183.7,152.2,192.6,141.2,192.6z"/>
<path class="st6" d="M159.8,138.3v34.4c0,10.2-8.3,18.5-18.5,18.5s-18.5-8.3-18.5-18.5v-34.4H159.8 M162.4,135.6h-2.6h-37.1h-2.6
	v2.6v34.4c0,11.7,9.5,21.2,21.2,21.2c11.7,0,21.2-9.5,21.2-21.2v-34.4V135.6L162.4,135.6z"/>
<g>
	<path class="st0" d="M137.3,190.8c1.3,0.3,2.6,0.4,4,0.4s2.7-0.2,4-0.4v-52.5h-7.9C137.3,138.3,137.3,190.8,137.3,190.8z"/>
	<rect x="122.7" y="160.1" class="st0" width="37.1" height="7.9"/>
</g>
</svg>
