<?xml version="1.0" encoding="utf-8"?>
<!-- Generator: Adobe Illustrator 22.0.1, SVG Export Plug-In . SVG Version: 6.00 Build 0)  -->
<svg version="1.1" id="Layer_1" xmlns="http://www.w3.org/2000/svg" xmlns:xlink="http://www.w3.org/1999/xlink" x="0px" y="0px"
	 viewBox="0 0 512 335.4" style="enable-background:new 0 0 512 335.4;" xml:space="preserve">
<style type="text/css">
	.st0{fill:#F5F5F5;}
	.st1{fill:#FF4B55;}
	.st2{fill:#41479B;}
</style>
<path class="st0" d="M512,111.8H0V8.8C0,4,4,0,8.8,0h494.3c4.9,0,8.8,4,8.8,8.8L512,111.8L512,111.8z"/>
<path class="st1" d="M503.2,335.4H8.8c-4.9,0-8.8-4-8.8-8.8v-103h512v103C512,331.5,508,335.4,503.2,335.4z"/>
<rect y="111.8" class="st2" width="512" height="111.8"/>
<path class="st1" d="M130.2,251c-2.6-1.5-64-37.2-64-92.1v-75h132.4v75c0,54.9-61.4,90.6-64,92.1l-2.2,1.2L130.2,251z"/>
<polygon class="st0" points="167.1,145.7 146.3,148.4 139.4,148.4 139.4,136 143.5,136 160.2,138.7 157.9,129 160.2,119.4 
	143.5,122.1 139.4,122.1 139.4,117.9 142.1,97.1 132.4,99.9 122.7,97.1 125.5,117.9 125.5,122.1 121.3,122.1 104.7,119.4 106.9,129 
	104.7,138.7 121.3,136 125.5,136 125.5,148.4 118.5,148.4 97.7,145.7 100.6,155.3 97.7,165 118.5,162.3 125.5,162.3 125.5,194.2 
	139.4,194.2 139.4,162.3 146.3,162.3 167.1,165 164.3,155.3 "/>
<path class="st2" d="M132.4,181c-9.1,0-16.9,5.5-20.3,13.4c-0.6,0-1.2-0.2-1.8-0.2c-11.8,0-21.3,9.2-21.9,20.8
	c17.9,22,40.3,35.1,41.8,36l2.2,1.3l2.2-1.3c1.6-0.9,23.9-14,41.8-36c-0.7-11.6-10.2-20.8-21.9-20.8c-0.6,0-1.2,0.1-1.8,0.2
	C149.4,186.5,141.5,181,132.4,181z"/>
<path class="st0" d="M194.2,88.3c0,0,0,53,0,70.6c0,53-61.8,88.3-61.8,88.3s-61.8-35.3-61.8-88.3c0-17.7,0-70.6,0-70.6L194.2,88.3
	 M203,79.4h-8.8H70.6h-8.8v8.8v70.6c0,57.4,63.5,94.4,66.2,95.9l4.4,2.5l4.4-2.5c2.7-1.5,66.2-38.5,66.2-95.9V88.3L203,79.4
	L203,79.4z"/>
</svg>
