<?xml version="1.0" encoding="utf-8"?>
<!-- Generator: Adobe Illustrator 22.0.1, SVG Export Plug-In . SVG Version: 6.00 Build 0)  -->
<svg version="1.1" id="Layer_1" xmlns="http://www.w3.org/2000/svg" xmlns:xlink="http://www.w3.org/1999/xlink" x="0px" y="0px"
	 viewBox="0 0 512 335.4" style="enable-background:new 0 0 512 335.4;" xml:space="preserve">
<style type="text/css">
	.st0{fill:#F5F5F5;}
	.st1{fill:#FF4B55;}
	.st2{fill:#41479B;}
	.st3{fill:#FFE15A;}
	.st4{fill:#FF1722;}
</style>
<path class="st0" d="M512,111.8H0V8.8C0,4,4,0,8.8,0h494.3c4.9,0,8.8,4,8.8,8.8L512,111.8L512,111.8z"/>
<path class="st1" d="M503.2,335.4H8.8c-4.9,0-8.8-4-8.8-8.8v-103h512v103C512,331.5,508,335.4,503.2,335.4z"/>
<g>
	<rect y="111.8" class="st2" width="512" height="111.8"/>
	<path class="st2" d="M172,69.1c0,0-1.8,56.6-9.7,72.5c-9.8,19.5-19.7,25.2-34.4,30.5c-14.7-5.3-24.6-11-34.4-30.5
		c-7.9-15.9-9.7-72.5-9.7-72.5C111.8,56.4,143.9,56.4,172,69.1z"/>
</g>
<g>
	<path class="st0" d="M140.6,147.6c-1.1-0.7-1.9-1.2-3.6-1.2c-1.8,0-2.5,0.5-3.6,1.2c-1.2,0.8-2.8,1.8-5.6,1.8c-2.8,0-4.4-1-5.6-1.8
		c-1.1-0.7-1.8-1.2-3.6-1.2s-2.5,0.5-3.6,1.2c-1.2,0.7-2.6,1.6-5.2,1.7c5.4,6.5,11,9.6,18,12.3c7-2.7,12.6-5.8,18-12.3
		C143.3,149.3,141.8,148.4,140.6,147.6z"/>
	<path class="st0" d="M105.8,137.2c1.1,0.7,1.8,1.2,3.6,1.2c1.8,0,2.5-0.5,3.6-1.2c1.2-0.8,2.8-1.8,5.6-1.8c2.8,0,4.4,1,5.6,1.8
		c1.1,0.7,1.8,1.2,3.6,1.2s2.5-0.5,3.6-1.2c1.2-0.8,2.8-1.8,5.6-1.8c2.8,0,4.4,1,5.6,1.8c1.1,0.7,1.8,1.2,3.6,1.2s2.5-0.5,3.6-1.2
		c1-0.7,2.3-1.4,4.4-1.7c0.5-1.4,1.1-3,1.5-4.9l-13.2-22l-4.9,9.8l-9.8-19.6l-9.8,19.6l-4.9-9.8L100,130.6c0.5,1.9,1,3.5,1.5,4.9
		C103.5,135.8,104.8,136.5,105.8,137.2z"/>
	<path class="st0" d="M151.8,140.3c-1.2,0.8-2.8,1.8-5.6,1.8c-2.8,0-4.4-1-5.6-1.8c-1.1-0.7-1.9-1.2-3.6-1.2c-1.8,0-2.5,0.5-3.6,1.2
		c-1.2,0.8-2.8,1.8-5.6,1.8c-2.8,0-4.4-1-5.6-1.8c-1.1-0.7-1.8-1.2-3.6-1.2s-2.5,0.5-3.6,1.2c-1.2,0.8-2.8,1.8-5.6,1.8
		c-2.8,0-4.4-1-5.6-1.8c0,0,0,0,0,0c1,1.7,1.9,3.3,2.9,4.8c0.7,0.4,1.5,0.7,2.7,0.7c1.8,0,2.5-0.5,3.6-1.2c1.2-0.8,2.8-1.8,5.6-1.8
		s4.4,1,5.6,1.8c1.1,0.7,1.8,1.2,3.6,1.2s2.5-0.5,3.6-1.2c1.2-0.8,2.8-1.8,5.6-1.8c2.8,0,4.4,1,5.6,1.8c1.1,0.7,1.8,1.2,3.6,1.2
		c1.3,0,2-0.3,2.8-0.7C149.9,143.6,150.9,142,151.8,140.3C151.9,140.2,151.8,140.3,151.8,140.3z"/>
</g>
<g>
	<path class="st3" d="M128,81.9l0.9,2.8l2.9-0.7c0.2,0,0.3,0.2,0.2,0.3l-2,2.2l2,2.2c0.1,0.1,0,0.4-0.2,0.3l-2.9-0.7l-0.9,2.8
		c-0.1,0.2-0.3,0.2-0.4,0l-0.9-2.8l-2.9,0.7c-0.2,0-0.3-0.2-0.2-0.3l2-2.2l-2-2.2c-0.1-0.1,0-0.4,0.2-0.3l2.9,0.7l0.9-2.8
		C127.7,81.8,128,81.8,128,81.9z"/>
	<path class="st3" d="M113.9,68.4l0.9,2.8l2.9-0.7c0.2,0,0.3,0.2,0.2,0.3l-2,2.2l2,2.2c0.1,0.1,0,0.4-0.2,0.3l-2.9-0.7l-0.9,2.8
		c-0.1,0.2-0.3,0.2-0.4,0l-0.9-2.8l-2.9,0.7c-0.2,0-0.3-0.2-0.2-0.3l2-2.2l-2-2.2c-0.1-0.1,0-0.4,0.2-0.3l2.9,0.7l0.9-2.8
		C113.6,68.2,113.9,68.2,113.9,68.4z"/>
	<path class="st3" d="M142.3,68.4l0.9,2.8l2.9-0.7c0.2,0,0.3,0.2,0.2,0.3l-2,2.2l2,2.2c0.1,0.1,0,0.4-0.2,0.3l-2.9-0.7l-0.9,2.8
		c-0.1,0.2-0.3,0.2-0.4,0l-0.9-2.8l-2.9,0.7c-0.2,0-0.3-0.2-0.2-0.3l2-2.2l-2-2.2c-0.1-0.1,0-0.4,0.2-0.3l2.9,0.7l0.9-2.8
		C141.9,68.2,142.2,68.2,142.3,68.4z"/>
</g>
<path class="st4" d="M166.9,67c0,1.6,0.1,3.1,0.1,4.8c-0.7,17.7-3.3,56.3-9.1,67.9c-8.5,17-16.3,22.6-30.1,27.8
	c-13.8-5.2-21.6-10.8-30-27.8C92,128,89.4,88.8,88.7,71.8c0-1.7,0-3.3,0.1-4.8c-1.7,0.7-3.4,1.4-5.1,2.1c0.1,3.4,1,26,3.5,45.8
	c1.4,11.1,3.4,21.3,6.2,26.7c9.8,19.6,19.7,25.2,34.4,30.5c14.7-5.3,24.6-11,34.4-30.5c2.7-5.4,4.7-15.6,6.2-26.7
	c2.6-19.8,3.4-42.4,3.5-45.8C170.3,68.3,168.6,67.6,166.9,67z"/>
</svg>
