<?xml version="1.0" encoding="utf-8"?>
<!-- Generator: Adobe Illustrator 22.0.1, SVG Export Plug-In . SVG Version: 6.00 Build 0)  -->
<svg version="1.1" id="Layer_1" xmlns="http://www.w3.org/2000/svg" xmlns:xlink="http://www.w3.org/1999/xlink" x="0px" y="0px"
	 viewBox="0 0 512 335.4" style="enable-background:new 0 0 512 335.4;" xml:space="preserve">
<style type="text/css">
	.st0{fill:#FF4B55;}
	.st1{fill:#F5F5F5;}
</style>
<path class="st0" d="M503.2,335.4H8.8c-4.9,0-8.8-4-8.8-8.8V8.8C0,4,4,0,8.8,0h494.3c4.9,0,8.8,4,8.8,8.8v317.8
	C512,331.5,508,335.4,503.2,335.4z"/>
<path class="st1" d="M353.1,132.4h-61.8V70.6c0-4.9-4-8.8-8.8-8.8h-53c-4.9,0-8.8,4-8.8,8.8v61.8h-61.8c-4.9,0-8.8,4-8.8,8.8v53
	c0,4.9,4,8.8,8.8,8.8h61.8v61.8c0,4.9,4,8.8,8.8,8.8h53c4.9,0,8.8-4,8.8-8.8V203h61.8c4.9,0,8.8-4,8.8-8.8v-53
	C361.9,136.4,358,132.4,353.1,132.4z"/>
</svg>
