<?xml version="1.0" encoding="utf-8"?>
<!-- Generator: Adobe Illustrator 22.0.1, SVG Export Plug-In . SVG Version: 6.00 Build 0)  -->
<svg version="1.1" id="Layer_1" xmlns="http://www.w3.org/2000/svg" xmlns:xlink="http://www.w3.org/1999/xlink" x="0px" y="0px"
	 viewBox="0 0 512 335.4" style="enable-background:new 0 0 512 335.4;" xml:space="preserve">
<style type="text/css">
	.st0{fill:#FF4B55;}
	.st1{fill:#F5F5F5;}
</style>
<path class="st0" d="M503.2,335.4H8.8c-4.9,0-8.8-4-8.8-8.8V8.8C0,4,4,0,8.8,0h494.3c4.9,0,8.8,4,8.8,8.8v317.8
	C512,331.5,508,335.4,503.2,335.4z"/>
<g>
	<path class="st1" d="M253.5,137.5l13.8,18.1l21.6-7.2c1.2-0.4,2.2,1,1.5,2l-12.9,18.8l13.6,18.3c0.8,1-0.2,2.4-1.4,2.1l-21.8-6.5
		l-13.2,18.5c-0.7,1-2.4,0.5-2.4-0.7l-0.6-22.8l-21.7-6.8c-1.2-0.4-1.2-2.1,0-2.5l21.5-7.6l-0.2-22.8
		C251.1,137,252.7,136.5,253.5,137.5z"/>
	<path class="st1" d="M177,238.4c-39,0-70.6-31.6-70.6-70.7c0-39,31.6-70.7,70.6-70.7c14.5,0,27.9,4.5,39,12
		c1.7,1.2,3.7-1.1,2.2-2.6c-16.7-17.3-40.2-27.9-66.4-27c-44.9,1.5-82.1,37.6-85,82.4c-3.3,51.4,37.4,94.1,88.1,94.1
		c25,0,47.4-10.4,63.4-27.1c1.4-1.5-0.5-3.7-2.2-2.5C204.9,233.9,191.5,238.4,177,238.4z"/>
</g>
</svg>
