<?xml version="1.0" encoding="utf-8"?>
<!-- Generator: Adobe Illustrator 22.0.1, SVG Export Plug-In . SVG Version: 6.00 Build 0)  -->
<svg version="1.1" id="Layer_1" xmlns="http://www.w3.org/2000/svg" xmlns:xlink="http://www.w3.org/1999/xlink" x="0px" y="0px"
	 viewBox="0 0 512 335.4" style="enable-background:new 0 0 512 335.4;" xml:space="preserve">
<style type="text/css">
	.st0{fill:#F5F5F5;}
	.st1{fill:#FF4B55;}
	.st2{fill:#41479B;}
</style>
<path class="st0" d="M503.2,335.4H8.8c-4.9,0-8.8-4-8.8-8.8V8.8C0,4,4,0,8.8,0h494.3c4.9,0,8.8,4,8.8,8.8v317.8
	C512,331.5,508,335.4,503.2,335.4z"/>
<g>
	<path class="st1" d="M512,25.8H0v-17C0,4,4,0,8.8,0h494.3c4.9,0,8.8,4,8.8,8.8L512,25.8L512,25.8z"/>
	<rect y="103.2" class="st1" width="512" height="25.8"/>
	<rect y="51.6" class="st1" width="512" height="25.8"/>
	<path class="st1" d="M512,180.6H8.8c-4.9,0-8.8-4-8.8-8.8v-17h512V180.6z"/>
	<rect y="258" class="st1" width="512" height="25.8"/>
	<path class="st1" d="M503.2,335.4H8.8c-4.9,0-8.8-4-8.8-8.8v-17h512v17C512,331.5,508,335.4,503.2,335.4z"/>
	<rect y="206.4" class="st1" width="512" height="25.8"/>
</g>
<path class="st2" d="M229.5,0H8.8C4,0,0,4,0,8.8v163c0,4.9,4,8.8,8.8,8.8h220.7c4.9,0,8.8-4,8.8-8.8V8.8C238.3,4,234.4,0,229.5,0z"
	/>
<g>
	<path class="st0" d="M24.8,20.3l2,5.9l6.2,0c0.8,0,1.1,1,0.5,1.5l-5,3.7l1.9,5.9c0.2,0.8-0.6,1.4-1.3,0.9l-5-3.6l-5,3.6
		c-0.7,0.5-1.5-0.2-1.3-0.9l1.9-5.9l-5-3.7c-0.6-0.5-0.3-1.5,0.5-1.5l6.2,0l2-5.9C23.5,19.5,24.5,19.5,24.8,20.3z"/>
	<path class="st0" d="M24.8,50.9l2,5.9l6.2,0c0.8,0,1.1,1,0.5,1.5l-5,3.7l1.9,5.9c0.2,0.8-0.6,1.4-1.3,0.9l-5-3.6l-5,3.6
		c-0.7,0.5-1.5-0.2-1.3-0.9l1.9-5.9l-5-3.7c-0.6-0.5-0.3-1.5,0.5-1.5l6.2,0l2-5.9C23.5,50.2,24.5,50.2,24.8,50.9z"/>
	<path class="st0" d="M24.8,81.6l2,5.9l6.2,0c0.8,0,1.1,1,0.5,1.5l-5,3.7l1.9,5.9c0.2,0.8-0.6,1.4-1.3,0.9l-5-3.6l-5,3.6
		c-0.7,0.5-1.5-0.2-1.3-0.9l1.9-5.9l-5-3.7c-0.6-0.5-0.3-1.5,0.5-1.5l6.2,0l2-5.9C23.5,80.8,24.5,80.8,24.8,81.6z"/>
	<path class="st0" d="M24.8,112.2l2,5.9l6.2,0c0.8,0,1.1,1,0.5,1.5l-5,3.7l1.9,5.9c0.2,0.8-0.6,1.4-1.3,0.9l-5-3.6l-5,3.6
		c-0.7,0.5-1.5-0.2-1.3-0.9l1.9-5.9l-5-3.7c-0.6-0.5-0.3-1.5,0.5-1.5l6.2,0l2-5.9C23.5,111.5,24.5,111.5,24.8,112.2z"/>
	<path class="st0" d="M24.8,142.9l2,5.9l6.2,0c0.8,0,1.1,1,0.5,1.5l-5,3.7l1.9,5.9c0.2,0.8-0.6,1.4-1.3,0.9l-5-3.6l-5,3.6
		c-0.7,0.5-1.5-0.2-1.3-0.9l1.9-5.9l-5-3.7c-0.6-0.5-0.3-1.5,0.5-1.5l6.2,0l2-5.9C23.5,142.1,24.5,142.1,24.8,142.9z"/>
	<path class="st0" d="M48.6,35.3l2,5.9l6.2,0c0.8,0,1.1,1,0.5,1.5l-5,3.7l1.9,5.9c0.2,0.8-0.6,1.4-1.3,0.9l-5-3.6l-5,3.6
		c-0.7,0.5-1.5-0.2-1.3-0.9l1.9-5.9l-5-3.7c-0.6-0.5-0.3-1.5,0.5-1.5l6.2,0l2-5.9C47.3,34.5,48.3,34.5,48.6,35.3z"/>
	<path class="st0" d="M48.6,65.9l2,5.9l6.2,0c0.8,0,1.1,1,0.5,1.5l-5,3.7l1.9,5.9c0.2,0.8-0.6,1.4-1.3,0.9l-5-3.6l-5,3.6
		c-0.7,0.5-1.5-0.2-1.3-0.9l1.9-5.9l-5-3.7c-0.6-0.5-0.3-1.5,0.5-1.5l6.2,0l2-5.9C47.3,65.2,48.3,65.2,48.6,65.9z"/>
	<path class="st0" d="M48.6,96.6l2,5.9l6.2,0c0.8,0,1.1,1,0.5,1.5l-5,3.7l1.9,5.9c0.2,0.8-0.6,1.4-1.3,0.9l-5-3.6l-5,3.6
		c-0.7,0.5-1.5-0.2-1.3-0.9l1.9-5.9l-5-3.7c-0.6-0.5-0.3-1.5,0.5-1.5l6.2,0l2-5.9C47.3,95.8,48.3,95.8,48.6,96.6z"/>
	<path class="st0" d="M48.6,127.3l2,5.9l6.2,0c0.8,0,1.1,1,0.5,1.5l-5,3.7l1.9,5.9c0.2,0.8-0.6,1.4-1.3,0.9l-5-3.6l-5,3.6
		c-0.7,0.5-1.5-0.2-1.3-0.9l1.9-5.9l-5-3.7c-0.6-0.5-0.3-1.5,0.5-1.5l6.2,0l2-5.9C47.3,126.5,48.3,126.5,48.6,127.3z"/>
	<path class="st0" d="M72.4,20.3l2,5.9l6.2,0c0.8,0,1.1,1,0.5,1.5l-5,3.7l1.9,5.9c0.2,0.8-0.6,1.4-1.3,0.9l-5-3.6l-5,3.6
		c-0.7,0.5-1.5-0.2-1.3-0.9l1.9-5.9l-5-3.7c-0.6-0.5-0.3-1.5,0.5-1.5l6.2,0l2-5.9C71,19.5,72.1,19.5,72.4,20.3z"/>
	<path class="st0" d="M72.4,50.9l2,5.9l6.2,0c0.8,0,1.1,1,0.5,1.5L76,62l1.9,5.9c0.2,0.8-0.6,1.4-1.3,0.9l-5-3.6l-5,3.6
		c-0.7,0.5-1.5-0.2-1.3-0.9l1.9-5.9l-5-3.7c-0.6-0.5-0.3-1.5,0.5-1.5l6.2,0l2-5.9C71,50.2,72.1,50.2,72.4,50.9z"/>
	<path class="st0" d="M72.4,81.6l2,5.9l6.2,0c0.8,0,1.1,1,0.5,1.5l-5,3.7l1.9,5.9c0.2,0.8-0.6,1.4-1.3,0.9l-5-3.6l-5,3.6
		c-0.7,0.5-1.5-0.2-1.3-0.9l1.9-5.9l-5-3.7c-0.6-0.5-0.3-1.5,0.5-1.5l6.2,0l2-5.9C71,80.8,72.1,80.8,72.4,81.6z"/>
	<path class="st0" d="M72.4,112.2l2,5.9l6.2,0c0.8,0,1.1,1,0.5,1.5l-5,3.7l1.9,5.9c0.2,0.8-0.6,1.4-1.3,0.9l-5-3.6l-5,3.6
		c-0.7,0.5-1.5-0.2-1.3-0.9l1.9-5.9l-5-3.7c-0.6-0.5-0.3-1.5,0.5-1.5l6.2,0l2-5.9C71,111.5,72.1,111.5,72.4,112.2z"/>
	<path class="st0" d="M72.4,142.9l2,5.9l6.2,0c0.8,0,1.1,1,0.5,1.5l-5,3.7l1.9,5.9c0.2,0.8-0.6,1.4-1.3,0.9l-5-3.6l-5,3.6
		c-0.7,0.5-1.5-0.2-1.3-0.9l1.9-5.9l-5-3.7c-0.6-0.5-0.3-1.5,0.5-1.5l6.2,0l2-5.9C71,142.1,72.1,142.1,72.4,142.9z"/>
	<path class="st0" d="M96.2,35.3l2,5.9l6.2,0c0.8,0,1.1,1,0.5,1.5l-5,3.7l1.9,5.9c0.2,0.8-0.6,1.4-1.3,0.9l-5-3.6l-5,3.6
		c-0.7,0.5-1.5-0.2-1.3-0.9l1.9-5.9l-5-3.7c-0.6-0.5-0.3-1.5,0.5-1.5l6.2,0l2-5.9C94.8,34.5,95.9,34.5,96.2,35.3z"/>
	<path class="st0" d="M96.2,65.9l2,5.9l6.2,0c0.8,0,1.1,1,0.5,1.5l-5,3.7l1.9,5.9c0.2,0.8-0.6,1.4-1.3,0.9l-5-3.6l-5,3.6
		c-0.7,0.5-1.5-0.2-1.3-0.9l1.9-5.9l-5-3.7c-0.6-0.5-0.3-1.5,0.5-1.5l6.2,0l2-5.9C94.8,65.2,95.9,65.2,96.2,65.9z"/>
	<path class="st0" d="M96.2,96.6l2,5.9l6.2,0c0.8,0,1.1,1,0.5,1.5l-5,3.7l1.9,5.9c0.2,0.8-0.6,1.4-1.3,0.9l-5-3.6l-5,3.6
		c-0.7,0.5-1.5-0.2-1.3-0.9l1.9-5.9l-5-3.7c-0.6-0.5-0.3-1.5,0.5-1.5l6.2,0l2-5.9C94.8,95.8,95.9,95.8,96.2,96.6z"/>
	<path class="st0" d="M96.2,127.3l2,5.9l6.2,0c0.8,0,1.1,1,0.5,1.5l-5,3.7l1.9,5.9c0.2,0.8-0.6,1.4-1.3,0.9l-5-3.6l-5,3.6
		c-0.7,0.5-1.5-0.2-1.3-0.9l1.9-5.9l-5-3.7c-0.6-0.5-0.3-1.5,0.5-1.5l6.2,0l2-5.9C94.8,126.5,95.9,126.5,96.2,127.3z"/>
	<path class="st0" d="M120,20.3l2,5.9l6.2,0c0.8,0,1.1,1,0.5,1.5l-5,3.7l1.9,5.9c0.2,0.8-0.6,1.4-1.3,0.9l-5-3.6l-5,3.6
		c-0.7,0.5-1.5-0.2-1.3-0.9l1.9-5.9l-5-3.7c-0.6-0.5-0.3-1.5,0.5-1.5l6.2,0l2-5.9C118.6,19.5,119.7,19.5,120,20.3z"/>
	<path class="st0" d="M120,50.9l2,5.9l6.2,0c0.8,0,1.1,1,0.5,1.5l-5,3.7l1.9,5.9c0.2,0.8-0.6,1.4-1.3,0.9l-5-3.6l-5,3.6
		c-0.7,0.5-1.5-0.2-1.3-0.9l1.9-5.9l-5-3.7c-0.6-0.5-0.3-1.5,0.5-1.5l6.2,0l2-5.9C118.6,50.2,119.7,50.2,120,50.9z"/>
	<path class="st0" d="M120,81.6l2,5.9l6.2,0c0.8,0,1.1,1,0.5,1.5l-5,3.7l1.9,5.9c0.2,0.8-0.6,1.4-1.3,0.9l-5-3.6l-5,3.6
		c-0.7,0.5-1.5-0.2-1.3-0.9l1.9-5.9l-5-3.7c-0.6-0.5-0.3-1.5,0.5-1.5l6.2,0l2-5.9C118.6,80.8,119.7,80.8,120,81.6z"/>
	<path class="st0" d="M120,112.2l2,5.9l6.2,0c0.8,0,1.1,1,0.5,1.5l-5,3.7l1.9,5.9c0.2,0.8-0.6,1.4-1.3,0.9l-5-3.6l-5,3.6
		c-0.7,0.5-1.5-0.2-1.3-0.9l1.9-5.9l-5-3.7c-0.6-0.5-0.3-1.5,0.5-1.5l6.2,0l2-5.9C118.6,111.5,119.7,111.5,120,112.2z"/>
	<path class="st0" d="M120,142.9l2,5.9l6.2,0c0.8,0,1.1,1,0.5,1.5l-5,3.7l1.9,5.9c0.2,0.8-0.6,1.4-1.3,0.9l-5-3.6l-5,3.6
		c-0.7,0.5-1.5-0.2-1.3-0.9l1.9-5.9l-5-3.7c-0.6-0.5-0.3-1.5,0.5-1.5l6.2,0l2-5.9C118.6,142.1,119.7,142.1,120,142.9z"/>
	<path class="st0" d="M143.8,35.3l2,5.9l6.2,0c0.8,0,1.1,1,0.5,1.5l-5,3.7l1.9,5.9c0.2,0.8-0.6,1.4-1.3,0.9l-5-3.6l-5,3.6
		c-0.7,0.5-1.5-0.2-1.3-0.9l1.9-5.9l-5-3.7c-0.6-0.5-0.3-1.5,0.5-1.5l6.2,0l2-5.9C142.4,34.5,143.5,34.5,143.8,35.3z"/>
	<path class="st0" d="M143.8,65.9l2,5.9l6.2,0c0.8,0,1.1,1,0.5,1.5l-5,3.7l1.9,5.9c0.2,0.8-0.6,1.4-1.3,0.9l-5-3.6l-5,3.6
		c-0.7,0.5-1.5-0.2-1.3-0.9l1.9-5.9l-5-3.7c-0.6-0.5-0.3-1.5,0.5-1.5l6.2,0l2-5.9C142.4,65.2,143.5,65.2,143.8,65.9z"/>
	<path class="st0" d="M143.8,96.6l2,5.9l6.2,0c0.8,0,1.1,1,0.5,1.5l-5,3.7l1.9,5.9c0.2,0.8-0.6,1.4-1.3,0.9l-5-3.6l-5,3.6
		c-0.7,0.5-1.5-0.2-1.3-0.9l1.9-5.9l-5-3.7c-0.6-0.5-0.3-1.5,0.5-1.5l6.2,0l2-5.9C142.4,95.8,143.5,95.8,143.8,96.6z"/>
	<path class="st0" d="M143.8,127.3l2,5.9l6.2,0c0.8,0,1.1,1,0.5,1.5l-5,3.7l1.9,5.9c0.2,0.8-0.6,1.4-1.3,0.9l-5-3.6l-5,3.6
		c-0.7,0.5-1.5-0.2-1.3-0.9l1.9-5.9l-5-3.7c-0.6-0.5-0.3-1.5,0.5-1.5l6.2,0l2-5.9C142.4,126.5,143.5,126.5,143.8,127.3z"/>
	<path class="st0" d="M167.5,20.3l2,5.9l6.2,0c0.8,0,1.1,1,0.5,1.5l-5,3.7l1.9,5.9c0.2,0.8-0.6,1.4-1.3,0.9l-5-3.6l-5,3.6
		c-0.7,0.5-1.5-0.2-1.3-0.9l1.9-5.9l-5-3.7c-0.6-0.5-0.3-1.5,0.5-1.5l6.2,0l2-5.9C166.2,19.5,167.3,19.5,167.5,20.3z"/>
	<path class="st0" d="M167.5,50.9l2,5.9l6.2,0c0.8,0,1.1,1,0.5,1.5l-5,3.7l1.9,5.9c0.2,0.8-0.6,1.4-1.3,0.9l-5-3.6l-5,3.6
		c-0.7,0.5-1.5-0.2-1.3-0.9l1.9-5.9l-5-3.7c-0.6-0.5-0.3-1.5,0.5-1.5l6.2,0l2-5.9C166.2,50.2,167.3,50.2,167.5,50.9z"/>
	<path class="st0" d="M167.5,81.6l2,5.9l6.2,0c0.8,0,1.1,1,0.5,1.5l-5,3.7l1.9,5.9c0.2,0.8-0.6,1.4-1.3,0.9l-5-3.6l-5,3.6
		c-0.7,0.5-1.5-0.2-1.3-0.9l1.9-5.9l-5-3.7c-0.6-0.5-0.3-1.5,0.5-1.5l6.2,0l2-5.9C166.2,80.8,167.3,80.8,167.5,81.6z"/>
	<path class="st0" d="M167.5,112.2l2,5.9l6.2,0c0.8,0,1.1,1,0.5,1.5l-5,3.7l1.9,5.9c0.2,0.8-0.6,1.4-1.3,0.9l-5-3.6l-5,3.6
		c-0.7,0.5-1.5-0.2-1.3-0.9l1.9-5.9l-5-3.7c-0.6-0.5-0.3-1.5,0.5-1.5l6.2,0l2-5.9C166.2,111.5,167.3,111.5,167.5,112.2z"/>
	<path class="st0" d="M167.5,142.9l2,5.9l6.2,0c0.8,0,1.1,1,0.5,1.5l-5,3.7l1.9,5.9c0.2,0.8-0.6,1.4-1.3,0.9l-5-3.6l-5,3.6
		c-0.7,0.5-1.5-0.2-1.3-0.9l1.9-5.9l-5-3.7c-0.6-0.5-0.3-1.5,0.5-1.5l6.2,0l2-5.9C166.2,142.1,167.3,142.1,167.5,142.9z"/>
	<path class="st0" d="M191.3,35.3l2,5.9l6.2,0c0.8,0,1.1,1,0.5,1.5l-5,3.7l1.9,5.9c0.2,0.8-0.6,1.4-1.3,0.9l-5-3.6l-5,3.6
		c-0.7,0.5-1.5-0.2-1.3-0.9l1.9-5.9l-5-3.7c-0.6-0.5-0.3-1.5,0.5-1.5l6.2,0l2-5.9C190,34.5,191.1,34.5,191.3,35.3z"/>
	<path class="st0" d="M191.3,65.9l2,5.9l6.2,0c0.8,0,1.1,1,0.5,1.5l-5,3.7l1.9,5.9c0.2,0.8-0.6,1.4-1.3,0.9l-5-3.6l-5,3.6
		c-0.7,0.5-1.5-0.2-1.3-0.9l1.9-5.9l-5-3.7c-0.6-0.5-0.3-1.5,0.5-1.5l6.2,0l2-5.9C190,65.2,191.1,65.2,191.3,65.9z"/>
	<path class="st0" d="M191.3,96.6l2,5.9l6.2,0c0.8,0,1.1,1,0.5,1.5l-5,3.7l1.9,5.9c0.2,0.8-0.6,1.4-1.3,0.9l-5-3.6l-5,3.6
		c-0.7,0.5-1.5-0.2-1.3-0.9l1.9-5.9l-5-3.7c-0.6-0.5-0.3-1.5,0.5-1.5l6.2,0l2-5.9C190,95.8,191.1,95.8,191.3,96.6z"/>
	<path class="st0" d="M191.3,127.3l2,5.9l6.2,0c0.8,0,1.1,1,0.5,1.5l-5,3.7l1.9,5.9c0.2,0.8-0.6,1.4-1.3,0.9l-5-3.6l-5,3.6
		c-0.7,0.5-1.5-0.2-1.3-0.9l1.9-5.9l-5-3.7c-0.6-0.5-0.3-1.5,0.5-1.5l6.2,0l2-5.9C190,126.5,191.1,126.5,191.3,127.3z"/>
	<path class="st0" d="M215.1,20.3l2,5.9l6.2,0c0.8,0,1.1,1,0.5,1.5l-5,3.7l1.9,5.9c0.2,0.8-0.6,1.4-1.3,0.9l-5-3.6l-5,3.6
		c-0.7,0.5-1.5-0.2-1.3-0.9l1.9-5.9l-5-3.7c-0.6-0.5-0.3-1.5,0.5-1.5l6.2,0l2-5.9C213.8,19.5,214.9,19.5,215.1,20.3z"/>
	<path class="st0" d="M215.1,50.9l2,5.9l6.2,0c0.8,0,1.1,1,0.5,1.5l-5,3.7l1.9,5.9c0.2,0.8-0.6,1.4-1.3,0.9l-5-3.6l-5,3.6
		c-0.7,0.5-1.5-0.2-1.3-0.9l1.9-5.9l-5-3.7c-0.6-0.5-0.3-1.5,0.5-1.5l6.2,0l2-5.9C213.8,50.2,214.9,50.2,215.1,50.9z"/>
	<path class="st0" d="M215.1,81.6l2,5.9l6.2,0c0.8,0,1.1,1,0.5,1.5l-5,3.7l1.9,5.9c0.2,0.8-0.6,1.4-1.3,0.9l-5-3.6l-5,3.6
		c-0.7,0.5-1.5-0.2-1.3-0.9l1.9-5.9l-5-3.7c-0.6-0.5-0.3-1.5,0.5-1.5l6.2,0l2-5.9C213.8,80.8,214.9,80.8,215.1,81.6z"/>
	<path class="st0" d="M215.1,112.2l2,5.9l6.2,0c0.8,0,1.1,1,0.5,1.5l-5,3.7l1.9,5.9c0.2,0.8-0.6,1.4-1.3,0.9l-5-3.6l-5,3.6
		c-0.7,0.5-1.5-0.2-1.3-0.9l1.9-5.9l-5-3.7c-0.6-0.5-0.3-1.5,0.5-1.5l6.2,0l2-5.9C213.8,111.5,214.9,111.5,215.1,112.2z"/>
	<path class="st0" d="M215.1,142.9l2,5.9l6.2,0c0.8,0,1.1,1,0.5,1.5l-5,3.7l1.9,5.9c0.2,0.8-0.6,1.4-1.3,0.9l-5-3.6l-5,3.6
		c-0.7,0.5-1.5-0.2-1.3-0.9l1.9-5.9l-5-3.7c-0.6-0.5-0.3-1.5,0.5-1.5l6.2,0l2-5.9C213.8,142.1,214.9,142.1,215.1,142.9z"/>
</g>
</svg>
