<?xml version="1.0" encoding="iso-8859-1"?>
<!-- Generator: Adobe Illustrator 19.0.0, SVG Export Plug-In . SVG Version: 6.00 Build 0)  -->
<svg version="1.1" id="Capa_1" xmlns="http://www.w3.org/2000/svg" xmlns:xlink="http://www.w3.org/1999/xlink" x="0px" y="0px"
	 viewBox="0 0 335.817 335.817" style="enable-background:new 0 0 335.817 335.817;" xml:space="preserve">
<g>
	<g>
		<path d="M329.905,13.097C319.464-1.162,299.44-4.257,285.181,6.183c-1.152,0.844-2.247,1.764-3.276,2.754l-223.84,223.2l2.56-7.04
			c2.369-7.005,3.505-14.367,3.36-21.76V78.057c0.424-15.97-10.612-29.967-26.24-33.28c-17.416-3.006-33.971,8.675-36.977,26.09
			c-0.337,1.951-0.492,3.93-0.463,5.91v227.04c0,17.673,14.327,32,32,32h227.2c17.673,0.024,32.019-14.284,32.043-31.957
			c0.003-1.946-0.172-3.888-0.523-5.803c-3.313-15.628-17.31-26.664-33.28-26.24h-124.8c-6.571,0.013-13.101,1.039-19.36,3.04
			l-10.56,3.36l222.24-222.72C336.917,44.373,338.876,26.478,329.905,13.097z"/>
	</g>
</g>
<g>
</g>
<g>
</g>
<g>
</g>
<g>
</g>
<g>
</g>
<g>
</g>
<g>
</g>
<g>
</g>
<g>
</g>
<g>
</g>
<g>
</g>
<g>
</g>
<g>
</g>
<g>
</g>
<g>
</g>
</svg>
