<?xml version="1.0" encoding="iso-8859-1"?>
<!-- Generator: Adobe Illustrator 16.0.0, SVG Export Plug-In . SVG Version: 6.00 Build 0)  -->
<!DOCTYPE svg PUBLIC "-//W3C//DTD SVG 1.1//EN" "http://www.w3.org/Graphics/SVG/1.1/DTD/svg11.dtd">
<svg version="1.1" id="Capa_1" xmlns="http://www.w3.org/2000/svg" xmlns:xlink="http://www.w3.org/1999/xlink" x="0px" y="0px"
	 width="78.371px" height="78.371px" viewBox="0 0 78.371 78.371" style="enable-background:new 0 0 78.371 78.371;"
	 xml:space="preserve">
<g>
	<g id="_x33__x5F_6">
		<g>
			<path d="M39.186,0C23.266,0,10.362,12.924,10.362,28.871c0,12.455,17.589,37.402,25.286,47.725
				c0.834,1.116,2.146,1.775,3.536,1.775h0.001c1.393,0,2.704-0.659,3.536-1.776c7.699-10.321,25.287-35.269,25.287-47.724
				C68.009,12.924,55.104,0,39.186,0z M41.167,69.835c-0.461,0.635-1.197,1.013-1.98,1.013s-1.521-0.378-1.981-1.013
				c-13.392-18.474-21.589-33.97-21.589-40.964c0-13.018,10.572-23.609,23.569-23.609c12.995,0,23.569,10.592,23.569,23.609
				C62.755,35.863,54.558,51.361,41.167,69.835z M39.186,14.766c-6.771,0-12.261,5.498-12.261,12.28
				c0,6.783,5.489,12.281,12.261,12.281c6.771,0,12.262-5.498,12.262-12.281C51.447,20.264,45.956,14.766,39.186,14.766z
				 M39.186,34.063c-3.863,0-7.007-3.148-7.007-7.018s3.144-7.017,7.007-7.017c3.862,0,7.006,3.147,7.006,7.017
				S43.048,34.063,39.186,34.063z"/>
		</g>
	</g>
</g>
<g>
</g>
<g>
</g>
<g>
</g>
<g>
</g>
<g>
</g>
<g>
</g>
<g>
</g>
<g>
</g>
<g>
</g>
<g>
</g>
<g>
</g>
<g>
</g>
<g>
</g>
<g>
</g>
<g>
</g>
</svg>
