<?xml version="1.0" encoding="iso-8859-1"?>
<!-- Generator: Adobe Illustrator 16.0.0, SVG Export Plug-In . SVG Version: 6.00 Build 0)  -->
<!DOCTYPE svg PUBLIC "-//W3C//DTD SVG 1.1//EN" "http://www.w3.org/Graphics/SVG/1.1/DTD/svg11.dtd">
<svg version="1.1" id="Capa_1" xmlns="http://www.w3.org/2000/svg" xmlns:xlink="http://www.w3.org/1999/xlink" x="0px" y="0px"
	 width="616.832px" height="616.832px" viewBox="0 0 616.832 616.832" style="enable-background:new 0 0 616.832 616.832;"
	 xml:space="preserve">
<g>
	<g id="skype">
		<g>
			<path d="M385.649,263.005c-0.479-0.131-0.957-0.247-1.451-0.334C313.239,249.991,271.586,231,271.47,231
				c-9.212-5.223-14.537-10.765-14.987-15.611c-0.479-5.194,4.367-11.447,7.428-14.392c17.772-9.01,34.414-13.58,49.501-13.58
				c32.978,0,48.486,21.922,49.14,22.851c21.588,31.918,43.742,48.109,65.853,48.109c14.812,0,23.634-7.442,24.998-8.705
				c14.565-12.782,22.284-28.407,22.313-45.208c0.058-32.18-27.174-57.163-29.988-59.644
				c-32.702-30.496-76.241-45.962-129.37-45.962c-49.56,0-89.196,13.812-90.647,14.319
				c-85.308,28.654-92.345,102.196-84.147,137.088c0.13,0.551,0.29,1.088,0.479,1.61c31.483,87.121,163.522,98.395,169.122,98.83
				c60.412,4.773,63.228,32.963,63.329,34.572c2.104,29.408-50.634,38.49-58.788,39.709c-52.722-2.973-65.388-23.111-65.417-23.111
				l0,0c-0.421-0.855-0.914-1.668-1.48-2.422c-28.973-38.316-40.275-51.592-65.592-52.26l-1.958-0.029
				c-20.312,0-32.31,8.561-38.795,15.758c-16.481,18.25-14.334,44.656-14.044,47.6c0.073,0.639,0.174,1.277,0.319,1.902
				c23.459,98.133,148.637,100.961,162.84,100.961c0.029,0,0.174,0,0.349,0c7.646,0.451,14.987,0.668,22.052,0.668
				c167.207,0,178.668-122.158,178.727-123.117C499.989,316.105,425.866,274.524,385.649,263.005z M463.849,388.371
				c-0.377,4.135-11.954,105.547-170.63,96.059c-0.29-0.029-1.32-0.029-1.61-0.029c-11.795,0-115.297-2.191-134.346-77.561
				c-0.145-3.338-0.232-16.742,6.746-24.447c3.758-4.164,10.011-6.398,18.469-6.166c10.489,0.275,15.03,3.525,42.61,39.971
				c4.498,7.588,25.027,34.559,90.516,37.852c0.812,0.043,1.582,0.016,2.365-0.072c33.354-3.787,88.906-22.951,85.526-69.959
				c-0.044-2.248-1.901-55.262-90.053-62.225c-1.176-0.088-117.966-9.982-143.791-78.926c-1.741-8.415-13.028-75.863,65.519-102.253
				c0.363-0.131,36.561-12.738,81.202-12.738c45.556,0,82.421,12.839,109.842,38.403c5.73,5.122,20.587,21.995,20.515,38.229
				c-0.044,8.415-4.106,16.046-12.245,23.199c-0.087,0.058-2.22,1.654-6.05,1.654c-5.397,0-20.239-3.438-41.74-35.241
				c-0.973-1.465-24.243-35.719-73.237-35.719c-20.239,0-41.929,5.949-64.46,17.657c-0.885,0.464-1.712,1.001-2.466,1.625
				c-2.133,1.741-20.805,17.656-18.919,40.072c1.277,15.117,11.229,28.059,30.583,38.998c1.813,0.856,44.946,20.819,120.128,34.341
				C387.304,293.82,470.363,321.008,463.849,388.371z M601.329,361.502c4.569-25.768,21.907-156.574-75.632-252.487
				c-7.399-8.618-80.593-89.574-215.331-89.574c-15.175,0-30.743,1.059-46.354,3.148C251.652,16.089,216.629,0,172.858,0
				c-47.166,0-89.08,18.208-124.742,54.304c-0.812,0.856-80.927,86.411-27.13,196.63c-4.033,18.527-13.362,78.896,14.741,152.423
				c1.552,5.541,39.418,136.246,182.47,178.887c1.944,0.74,48.225,18.135,112.119,18.135c9.938,0,19.876-0.436,29.611-1.277
				c11.012,4.963,43.162,17.73,82.711,17.73c47.282,0,89.486-18.629,121.637-53.463
				C567.597,560.047,644.418,481.367,601.329,361.502z M543.354,543.26c-27.304,29.568-61.195,44.555-100.716,44.555
				c-40.768,0-73.165-16.277-73.455-16.424c-2.061-1.059-4.338-1.609-6.645-1.609c-0.479,0-0.958,0.029-1.451,0.072
				c-10.054,1.002-20.413,1.51-30.771,1.51c-58.25,0-101.34-16.061-102.776-16.584C99.2,516.508,64.018,396.771,63.263,394.305
				c-29.989-78.621-13.145-140.556-12.985-141.122c1.03-3.583,0.638-7.414-1.074-10.721C0.312,148.637,66.281,77.329,68.921,74.529
				c29.843-30.192,64.822-45.513,103.937-45.513c45.266,0,80.521,20.819,80.84,21.008c2.887,1.755,6.34,2.452,9.633,1.944
				c15.843-2.336,31.671-3.525,47.006-3.525c125.177,0,192.901,78.954,193.54,79.723c0.319,0.377,0.653,0.754,1.016,1.103
				c95.246,93.187,67.507,229.041,67.217,230.406c-0.581,2.727-0.378,5.584,0.609,8.197
				C612.138,471.951,546.531,540.039,543.354,543.26z"/>
		</g>
	</g>
</g>
<g>
</g>
<g>
</g>
<g>
</g>
<g>
</g>
<g>
</g>
<g>
</g>
<g>
</g>
<g>
</g>
<g>
</g>
<g>
</g>
<g>
</g>
<g>
</g>
<g>
</g>
<g>
</g>
<g>
</g>
</svg>
